<svg xmlns="http://www.w3.org/2000/svg" xmlns:xlink="http://www.w3.org/1999/xlink" width="500" zoomAndPan="magnify" viewBox="0 0 375 374.999991" height="500" preserveAspectRatio="xMidYMid meet" version="1.0"><defs><g/><clipPath id="3ebe4ff180"><path d="M 208.222656 213 L 239.722656 213 L 239.722656 289.65625 L 208.222656 289.65625 Z M 208.222656 213 " clip-rule="nonzero"/></clipPath><clipPath id="ce512570f1"><path d="M 208.222656 183.15625 L 239.722656 183.15625 L 239.722656 215 L 208.222656 215 Z M 208.222656 183.15625 " clip-rule="nonzero"/></clipPath><clipPath id="0dea69c81d"><rect x="0" width="62" y="0" height="128"/></clipPath><clipPath id="b91fb17743"><path d="M 207 7 L 258 7 L 258 166 L 207 166 Z M 207 7 " clip-rule="nonzero"/></clipPath><clipPath id="c29d445419"><path d="M 158.671875 44.574219 L 241.089844 -0.113281 L 307.9375 123.179688 L 225.523438 167.867188 Z M 158.671875 44.574219 " clip-rule="nonzero"/></clipPath><clipPath id="a4af95949e"><path d="M 158.671875 44.574219 L 241.089844 -0.113281 L 307.9375 123.179688 L 225.523438 167.867188 Z M 158.671875 44.574219 " clip-rule="nonzero"/></clipPath><clipPath id="eb80d184dc"><path d="M 99 79 L 209 79 L 209 175 L 99 175 Z M 99 79 " clip-rule="nonzero"/></clipPath><clipPath id="7a59fa5781"><path d="M 83.066406 150.160156 L 101.59375 66.691406 L 226.796875 94.484375 L 208.269531 177.949219 Z M 83.066406 150.160156 " clip-rule="nonzero"/></clipPath><clipPath id="faba0124cf"><path d="M 83.066406 150.160156 L 101.59375 66.691406 L 226.796875 94.484375 L 208.269531 177.949219 Z M 83.066406 150.160156 " clip-rule="nonzero"/></clipPath><clipPath id="a199af9e53"><path d="M 50 168 L 183 168 L 183 212 L 50 212 Z M 50 168 " clip-rule="nonzero"/></clipPath><clipPath id="2fb89f85dc"><path d="M 82.683594 252.9375 L 43.683594 185.386719 L 145.65625 126.511719 L 184.65625 194.058594 Z M 82.683594 252.9375 " clip-rule="nonzero"/></clipPath><clipPath id="7f9dfdf211"><path d="M 82.683594 252.9375 L 43.683594 185.386719 L 145.65625 126.511719 L 184.65625 194.058594 Z M 82.683594 252.9375 " clip-rule="nonzero"/></clipPath><clipPath id="09f870136a"><path d="M 65 220 L 166 220 L 166 285 L 65 285 Z M 65 220 " clip-rule="nonzero"/></clipPath><clipPath id="45e4dfdfe1"><path d="M 116.945312 314.011719 L 56.261719 279.617188 L 107.667969 188.921875 L 168.347656 223.316406 Z M 116.945312 314.011719 " clip-rule="nonzero"/></clipPath><clipPath id="b39b17ba94"><path d="M 116.945312 314.011719 L 56.261719 279.617188 L 107.667969 188.921875 L 168.347656 223.316406 Z M 116.945312 314.011719 " clip-rule="nonzero"/></clipPath><clipPath id="11cf9f6ab2"><path d="M 125 257 L 164 257 L 164 355 L 125 355 Z M 125 257 " clip-rule="nonzero"/></clipPath><clipPath id="2d921fa73a"><path d="M 180.128906 345.828125 L 120.324219 356.496094 L 104.390625 267.15625 L 164.195312 256.488281 Z M 180.128906 345.828125 " clip-rule="nonzero"/></clipPath><clipPath id="52424518b1"><path d="M 180.128906 345.828125 L 120.324219 356.496094 L 104.390625 267.15625 L 164.195312 256.488281 Z M 180.128906 345.828125 " clip-rule="nonzero"/></clipPath><clipPath id="9078c92c2f"><path d="M 173 288 L 209 288 L 209 373 L 173 373 Z M 173 288 " clip-rule="nonzero"/></clipPath><clipPath id="9b69cc4180"><path d="M 144.601562 319.351562 L 181.722656 282.230469 L 237.410156 337.914062 L 200.285156 375.039062 Z M 144.601562 319.351562 " clip-rule="nonzero"/></clipPath><clipPath id="f603970b4d"><path d="M 144.601562 319.351562 L 181.722656 282.230469 L 237.410156 337.914062 L 200.285156 375.039062 Z M 144.601562 319.351562 " clip-rule="nonzero"/></clipPath><clipPath id="2363017340"><path d="M 220 318 L 289 318 L 289 358 L 220 358 Z M 220 318 " clip-rule="nonzero"/></clipPath><clipPath id="440bd237a1"><path d="M 290.066406 317.273438 L 289.238281 363.765625 L 218.75 362.511719 L 219.578125 316.015625 Z M 290.066406 317.273438 " clip-rule="nonzero"/></clipPath><clipPath id="5e4284c995"><path d="M 290.066406 317.273438 L 289.238281 363.765625 L 218.75 362.511719 L 219.578125 316.015625 Z M 290.066406 317.273438 " clip-rule="nonzero"/></clipPath><clipPath id="bb3df6828b"><path d="M 256 299 L 307 299 L 307 318 L 256 318 Z M 256 299 " clip-rule="nonzero"/></clipPath><clipPath id="6325ddc045"><path d="M 292.328125 283.128906 L 309.578125 307.671875 L 272.148438 333.976562 L 254.898438 309.433594 Z M 292.328125 283.128906 " clip-rule="nonzero"/></clipPath><clipPath id="272ef0a70f"><path d="M 292.328125 283.128906 L 309.578125 307.671875 L 272.148438 333.976562 L 254.898438 309.433594 Z M 292.328125 283.128906 " clip-rule="nonzero"/></clipPath></defs><g clip-path="url(#3ebe4ff180)"><path fill="#ffffff" d="M 239.464844 213.058594 L 239.464844 273.898438 C 239.464844 282.523438 232.472656 289.515625 223.847656 289.515625 C 215.222656 289.515625 208.226562 282.523438 208.226562 273.898438 L 208.226562 213.058594 C 212.109375 217.289062 217.671875 219.945312 223.847656 219.945312 C 230.019531 219.945312 235.589844 217.289062 239.464844 213.058594 " fill-opacity="1" fill-rule="evenodd"/></g><g clip-path="url(#ce512570f1)"><path fill="#ffffff" d="M 239.464844 198.777344 C 239.464844 207.402344 232.472656 214.394531 223.847656 214.394531 C 215.222656 214.394531 208.226562 207.402344 208.226562 198.777344 C 208.226562 190.148438 215.222656 183.15625 223.847656 183.15625 C 232.472656 183.15625 239.464844 190.148438 239.464844 198.777344 " fill-opacity="1" fill-rule="evenodd"/></g><g transform="matrix(1, 0, 0, 1, 242, 180)"><g clip-path="url(#0dea69c81d)"><g fill="#ffde59" fill-opacity="1"><g transform="translate(1.195978, 100.1723)"><g><path d="M 31.65625 -43.65625 C 35.375 -43.65625 37.988281 -44.6875 39.5 -46.75 C 41.007812 -48.820312 41.765625 -51.050781 41.765625 -53.4375 C 41.765625 -56.101562 41.078125 -58.222656 39.703125 -59.796875 C 38.335938 -61.378906 36.582031 -62.503906 34.4375 -63.171875 C 32.300781 -63.835938 30.078125 -64.171875 27.765625 -64.171875 C 24.960938 -64.171875 22.332031 -63.414062 19.875 -61.90625 C 17.425781 -60.394531 15.847656 -58.203125 15.140625 -55.328125 L 5.578125 -57.640625 C 6.484375 -61.359375 8.054688 -64.441406 10.296875 -66.890625 C 12.546875 -69.347656 15.210938 -71.191406 18.296875 -72.421875 C 21.390625 -73.648438 24.546875 -74.265625 27.765625 -74.265625 C 31.765625 -74.265625 35.625 -73.5625 39.34375 -72.15625 C 43.0625 -70.757812 46.144531 -68.535156 48.59375 -65.484375 C 51.050781 -62.429688 52.28125 -58.414062 52.28125 -53.4375 C 52.28125 -50.5625 51.820312 -47.929688 50.90625 -45.546875 C 50 -43.160156 48.210938 -41.054688 45.546875 -39.234375 C 48.835938 -37.335938 51.238281 -34.6875 52.75 -31.28125 C 54.257812 -27.882812 55.015625 -24.398438 55.015625 -20.828125 C 55.015625 -17.253906 54.03125 -13.765625 52.0625 -10.359375 C 50.101562 -6.960938 47.160156 -4.140625 43.234375 -1.890625 C 39.304688 0.347656 34.363281 1.46875 28.40625 1.46875 C 23.144531 1.46875 18.773438 0.578125 15.296875 -1.203125 C 11.828125 -2.992188 9.128906 -5.363281 7.203125 -8.3125 C 5.273438 -11.257812 4.03125 -14.414062 3.46875 -17.78125 L 13.359375 -19.5625 C 13.847656 -16.613281 15.316406 -14.019531 17.765625 -11.78125 C 20.222656 -9.539062 23.769531 -8.421875 28.40625 -8.421875 C 32.332031 -8.421875 35.503906 -9.082031 37.921875 -10.40625 C 40.335938 -11.738281 42.125 -13.40625 43.28125 -15.40625 C 44.4375 -17.40625 45.015625 -19.421875 45.015625 -21.453125 C 45.015625 -23.210938 44.554688 -25.054688 43.640625 -26.984375 C 42.734375 -28.910156 41.316406 -30.554688 39.390625 -31.921875 C 37.460938 -33.285156 34.882812 -33.96875 31.65625 -33.96875 L 20.609375 -33.96875 L 20.609375 -43.65625 Z M 31.65625 -43.65625 "/></g></g></g></g></g><g clip-path="url(#b91fb17743)"><g clip-path="url(#c29d445419)"><g clip-path="url(#a4af95949e)"><path fill="#ffbd59" d="M 228.765625 165.191406 C 228.765625 165.191406 180.289062 84.628906 229.007812 7.527344 C 229.007812 7.527344 294.253906 98.917969 228.765625 165.191406 Z M 228.765625 165.191406 " fill-opacity="1" fill-rule="nonzero"/></g></g></g><g clip-path="url(#eb80d184dc)"><g clip-path="url(#7a59fa5781)"><g clip-path="url(#faba0124cf)"><path fill="#ffffff" d="M 208.109375 174.058594 C 208.109375 174.058594 123.601562 159.242188 99.644531 79.539062 C 99.644531 79.539062 201.648438 89.28125 208.109375 174.058594 Z M 208.109375 174.058594 " fill-opacity="1" fill-rule="nonzero"/></g></g></g><g clip-path="url(#a199af9e53)"><g clip-path="url(#2fb89f85dc)"><g clip-path="url(#7f9dfdf211)"><path fill="#38b6ff" d="M 182.152344 191.515625 C 182.152344 191.515625 115.753906 233.929688 50.078125 194.847656 C 50.078125 194.847656 125.167969 138.140625 182.152344 191.515625 Z M 182.152344 191.515625 " fill-opacity="1" fill-rule="nonzero"/></g></g></g><g clip-path="url(#09f870136a)"><g clip-path="url(#45e4dfdfe1)"><g clip-path="url(#b39b17ba94)"><path fill="#ffffff" d="M 165.511719 222.082031 C 165.511719 222.082031 133.730469 284.527344 65.761719 284.175781 C 65.761719 284.175781 97.769531 206.851562 165.511719 222.082031 Z M 165.511719 222.082031 " fill-opacity="1" fill-rule="nonzero"/></g></g></g><g clip-path="url(#11cf9f6ab2)"><g clip-path="url(#2d921fa73a)"><g clip-path="url(#52424518b1)"><path fill="#ff3131" d="M 161.621094 257.289062 C 161.621094 257.289062 175.007812 316.765625 129.28125 354.265625 C 129.28125 354.265625 107.789062 284.703125 161.621094 257.289062 Z M 161.621094 257.289062 " fill-opacity="1" fill-rule="nonzero"/></g></g></g><g clip-path="url(#9078c92c2f)"><g clip-path="url(#9b69cc4180)"><g clip-path="url(#f603970b4d)"><path fill="#ffffff" d="M 201.507812 372.988281 C 201.507812 372.988281 162.605469 337.433594 176.488281 288.230469 C 176.488281 288.230469 226.125 326.929688 201.507812 372.988281 Z M 201.507812 372.988281 " fill-opacity="1" fill-rule="nonzero"/></g></g></g><g clip-path="url(#2363017340)"><g clip-path="url(#440bd237a1)"><g clip-path="url(#5e4284c995)"><path fill="#00bf63" d="M 220.320312 318.09375 C 220.320312 318.09375 267.316406 316.820312 288.882812 357 C 288.882812 357 233.050781 362.90625 220.320312 318.09375 Z M 220.320312 318.09375 " fill-opacity="1" fill-rule="nonzero"/></g></g></g><g clip-path="url(#bb3df6828b)"><g clip-path="url(#6325ddc045)"><g clip-path="url(#272ef0a70f)"><path fill="#ffffff" d="M 256.183594 310.160156 C 256.183594 310.160156 280.261719 291.570312 306.863281 304.347656 C 306.863281 304.347656 279.929688 328.730469 256.183594 310.160156 Z M 256.183594 310.160156 " fill-opacity="1" fill-rule="nonzero"/></g></g></g></svg>