<svg xmlns="http://www.w3.org/2000/svg" xmlns:xlink="http://www.w3.org/1999/xlink" width="500" zoomAndPan="magnify" viewBox="0 0 375 374.999991" height="500" preserveAspectRatio="xMidYMid meet" version="1.0"><defs><g/><clipPath id="5b6cf8dc73"><path d="M 73.527344 197 L 87.777344 197 L 87.777344 231.3125 L 73.527344 231.3125 Z M 73.527344 197 " clip-rule="nonzero"/></clipPath><clipPath id="21032139b4"><path d="M 73.527344 184.0625 L 87.777344 184.0625 L 87.777344 199 L 73.527344 199 Z M 73.527344 184.0625 " clip-rule="nonzero"/></clipPath><clipPath id="5d54f85093"><path d="M 73 105 L 96 105 L 96 177 L 73 177 Z M 73 105 " clip-rule="nonzero"/></clipPath><clipPath id="aa2be3310d"><path d="M 51.410156 122.203125 L 88.332031 102.183594 L 118.359375 157.566406 L 81.4375 177.585938 Z M 51.410156 122.203125 " clip-rule="nonzero"/></clipPath><clipPath id="0fac466485"><path d="M 51.410156 122.203125 L 88.332031 102.183594 L 118.359375 157.566406 L 81.4375 177.585938 Z M 51.410156 122.203125 " clip-rule="nonzero"/></clipPath><clipPath id="81047b6b39"><path d="M 25 137 L 74 137 L 74 180 L 25 180 Z M 25 137 " clip-rule="nonzero"/></clipPath><clipPath id="3a736e9ac0"><path d="M 17.664062 169.324219 L 25.953125 131.984375 L 81.597656 144.335938 L 73.308594 181.679688 Z M 17.664062 169.324219 " clip-rule="nonzero"/></clipPath><clipPath id="7e0392abab"><path d="M 17.664062 169.324219 L 25.953125 131.984375 L 81.597656 144.335938 L 73.308594 181.679688 Z M 17.664062 169.324219 " clip-rule="nonzero"/></clipPath><clipPath id="4954336b2e"><path d="M 2 177 L 62 177 L 62 197 L 2 197 Z M 2 177 " clip-rule="nonzero"/></clipPath><clipPath id="5a32873a26"><path d="M 17.492188 215.207031 L -0.132812 184.679688 L 45.332031 158.429688 L 62.957031 188.957031 Z M 17.492188 215.207031 " clip-rule="nonzero"/></clipPath><clipPath id="ed5dffe302"><path d="M 17.492188 215.207031 L -0.132812 184.679688 L 45.332031 158.429688 L 62.957031 188.957031 Z M 17.492188 215.207031 " clip-rule="nonzero"/></clipPath><clipPath id="1089dbe76a"><path d="M 9 200 L 55 200 L 55 230 L 9 230 Z M 9 200 " clip-rule="nonzero"/></clipPath><clipPath id="4e77895d23"><path d="M 32.777344 242.460938 L 6.027344 227.296875 L 28.957031 186.84375 L 55.707031 202.007812 Z M 32.777344 242.460938 " clip-rule="nonzero"/></clipPath><clipPath id="a3a9305f4c"><path d="M 32.777344 242.460938 L 6.027344 227.296875 L 28.957031 186.84375 L 55.707031 202.007812 Z M 32.777344 242.460938 " clip-rule="nonzero"/></clipPath><clipPath id="6cae72c7ed"><path d="M 36 217 L 54 217 L 54 261 L 36 261 Z M 36 217 " clip-rule="nonzero"/></clipPath><clipPath id="d8044e6877"><path d="M 60.980469 256.667969 L 34.398438 261.410156 L 27.289062 221.539062 L 53.871094 216.796875 Z M 60.980469 256.667969 " clip-rule="nonzero"/></clipPath><clipPath id="ecff2d9a9d"><path d="M 60.980469 256.667969 L 34.398438 261.410156 L 27.289062 221.539062 L 53.871094 216.796875 Z M 60.980469 256.667969 " clip-rule="nonzero"/></clipPath><clipPath id="9077b96161"><path d="M 58 230 L 74 230 L 74 269 L 58 269 Z M 58 230 " clip-rule="nonzero"/></clipPath><clipPath id="da2144be29"><path d="M 45.125 244.851562 L 61.566406 228.414062 L 86.492188 253.335938 L 70.050781 269.777344 Z M 45.125 244.851562 " clip-rule="nonzero"/></clipPath><clipPath id="b7a973ff63"><path d="M 45.125 244.851562 L 61.566406 228.414062 L 86.492188 253.335938 L 70.050781 269.777344 Z M 45.125 244.851562 " clip-rule="nonzero"/></clipPath><clipPath id="8c3fc4b2b9"><path d="M 78 244 L 110 244 L 110 262 L 78 262 Z M 78 244 " clip-rule="nonzero"/></clipPath><clipPath id="469d26378b"><path d="M 110.058594 243.925781 L 109.6875 264.921875 L 78.191406 264.363281 L 78.566406 243.367188 Z M 110.058594 243.925781 " clip-rule="nonzero"/></clipPath><clipPath id="5dfffd3a34"><path d="M 110.058594 243.925781 L 109.6875 264.921875 L 78.191406 264.363281 L 78.566406 243.367188 Z M 110.058594 243.925781 " clip-rule="nonzero"/></clipPath><clipPath id="2141d11631"><path d="M 94 236 L 118 236 L 118 244 L 94 244 Z M 94 236 " clip-rule="nonzero"/></clipPath><clipPath id="8f9a9fe702"><path d="M 111.070312 228.6875 L 118.832031 239.734375 L 102.261719 251.378906 L 94.5 240.332031 Z M 111.070312 228.6875 " clip-rule="nonzero"/></clipPath><clipPath id="3790c988de"><path d="M 111.070312 228.6875 L 118.832031 239.734375 L 102.261719 251.378906 L 94.5 240.332031 Z M 111.070312 228.6875 " clip-rule="nonzero"/></clipPath><clipPath id="0ecea86bee"><rect x="0" width="91" y="0" height="32"/></clipPath><clipPath id="1ceaa71f34"><path d="M 197.816406 167.394531 L 212.882812 167.394531 L 212.882812 182.460938 L 197.816406 182.460938 Z M 197.816406 167.394531 " clip-rule="nonzero"/></clipPath><clipPath id="bee3216d28"><path d="M 205.351562 167.394531 C 201.191406 167.394531 197.816406 170.765625 197.816406 174.925781 C 197.816406 179.089844 201.191406 182.460938 205.351562 182.460938 C 209.511719 182.460938 212.882812 179.089844 212.882812 174.925781 C 212.882812 170.765625 209.511719 167.394531 205.351562 167.394531 Z M 205.351562 167.394531 " clip-rule="nonzero"/></clipPath><clipPath id="4ac71509bb"><path d="M 0.816406 0.394531 L 15.882812 0.394531 L 15.882812 15.460938 L 0.816406 15.460938 Z M 0.816406 0.394531 " clip-rule="nonzero"/></clipPath><clipPath id="0afa47189c"><path d="M 8.351562 0.394531 C 4.191406 0.394531 0.816406 3.765625 0.816406 7.925781 C 0.816406 12.089844 4.191406 15.460938 8.351562 15.460938 C 12.511719 15.460938 15.882812 12.089844 15.882812 7.925781 C 15.882812 3.765625 12.511719 0.394531 8.351562 0.394531 Z M 8.351562 0.394531 " clip-rule="nonzero"/></clipPath><clipPath id="5aab8a1b6c"><rect x="0" width="16" y="0" height="16"/></clipPath><clipPath id="a463ef8fcc"><path d="M 199.109375 168.6875 L 211.859375 168.6875 L 211.859375 181.4375 L 199.109375 181.4375 Z M 199.109375 168.6875 " clip-rule="nonzero"/></clipPath><clipPath id="925dfbc088"><rect x="0" width="15" y="0" height="34"/></clipPath><clipPath id="50766eec25"><rect x="0" width="29" y="0" height="32"/></clipPath></defs><g fill="#ffffff" fill-opacity="1"><g transform="translate(119.165989, 223.531274)"><g/></g></g><g fill="#ffffff" fill-opacity="1"><g transform="translate(130.439426, 223.531274)"><g><path d="M 20.84375 0 L 2.015625 0 L 2.015625 -7.15625 L 7.4375 -7.15625 L 7.4375 -25.609375 L 2.015625 -25.609375 L 2.015625 -32.90625 L 20.84375 -32.90625 L 20.84375 -25.609375 L 15.421875 -25.609375 L 15.421875 -7.15625 L 20.84375 -7.15625 Z M 20.84375 0 "/></g></g></g><g fill="#ffffff" fill-opacity="1"><g transform="translate(152.591478, 223.531274)"><g><path d="M 8.5 -22.765625 C 9.40625 -23.878906 10.539062 -24.640625 11.90625 -25.046875 C 13.28125 -25.453125 14.640625 -25.65625 15.984375 -25.65625 C 18.378906 -25.625 20.238281 -25.070312 21.5625 -24 C 22.882812 -22.925781 23.8125 -21.507812 24.34375 -19.75 C 24.875 -17.988281 25.125 -16.046875 25.09375 -13.921875 L 25.09375 0 L 17.625 0 L 17.625 -13.875 C 17.625 -15.59375 17.21875 -16.847656 16.40625 -17.640625 C 15.59375 -18.429688 14.6875 -18.828125 13.6875 -18.828125 C 12.976562 -18.828125 12.25 -18.625 11.5 -18.21875 C 10.75 -17.820312 10.125 -17.25 9.625 -16.5 C 9.125 -15.75 8.875 -14.828125 8.875 -13.734375 L 8.875 0 L 1.078125 0 L 1.078125 -25.28125 L 8.5 -25.28125 Z M 8.5 -22.765625 "/></g></g></g><g fill="#ffffff" fill-opacity="1"><g transform="translate(180.491863, 223.531274)"><g><path d="M 16.828125 0.046875 C 16.078125 0.171875 15.347656 0.265625 14.640625 0.328125 C 13.941406 0.390625 13.285156 0.421875 12.671875 0.421875 C 9.890625 0.421875 7.703125 -0.285156 6.109375 -1.703125 C 4.523438 -3.117188 3.734375 -5.460938 3.734375 -8.734375 L 3.734375 -18.6875 L 0.421875 -18.6875 L 0.421875 -25 L 3.734375 -25 L 3.734375 -29.8125 L 11.078125 -30.46875 L 11.078125 -25 L 16.359375 -25 L 16.359375 -18.6875 L 11.078125 -18.6875 L 11.078125 -8.734375 C 11.078125 -7.617188 11.425781 -6.847656 12.125 -6.421875 C 12.820312 -6.003906 13.609375 -5.796875 14.484375 -5.796875 C 15.171875 -5.796875 15.875 -5.875 16.59375 -6.03125 Z M 16.828125 0.046875 "/></g></g></g><g fill="#ffffff" fill-opacity="1"><g transform="translate(199.419234, 223.531274)"><g><path d="M 26.734375 -12.71875 C 26.734375 -11.71875 26.640625 -10.75 26.453125 -9.8125 L 8.3125 -9.8125 C 8.75 -8.65625 9.484375 -7.78125 10.515625 -7.1875 C 11.546875 -6.601562 12.617188 -6.296875 13.734375 -6.265625 C 14.546875 -6.265625 15.328125 -6.40625 16.078125 -6.6875 C 16.828125 -6.96875 17.46875 -7.398438 18 -7.984375 L 25.984375 -7.984375 C 25.359375 -6.148438 24.40625 -4.617188 23.125 -3.390625 C 21.851562 -2.160156 20.390625 -1.238281 18.734375 -0.625 C 17.085938 -0.0195312 15.390625 0.28125 13.640625 0.28125 C 12.023438 0.28125 10.4375 0.0078125 8.875 -0.53125 C 7.320312 -1.082031 5.921875 -1.894531 4.671875 -2.96875 C 3.421875 -4.039062 2.429688 -5.394531 1.703125 -7.03125 C 0.972656 -8.664062 0.609375 -10.5625 0.609375 -12.71875 C 0.609375 -14.863281 0.972656 -16.742188 1.703125 -18.359375 C 2.429688 -19.984375 3.421875 -21.332031 4.671875 -22.40625 C 5.921875 -23.476562 7.320312 -24.285156 8.875 -24.828125 C 10.4375 -25.378906 12.039062 -25.65625 13.6875 -25.65625 C 15.3125 -25.65625 16.898438 -25.378906 18.453125 -24.828125 C 20.015625 -24.285156 21.414062 -23.476562 22.65625 -22.40625 C 23.90625 -21.332031 24.894531 -19.984375 25.625 -18.359375 C 26.363281 -16.742188 26.734375 -14.863281 26.734375 -12.71875 Z M 18.6875 -15.5625 C 18.34375 -16.84375 17.695312 -17.773438 16.75 -18.359375 C 15.800781 -18.953125 14.734375 -19.25 13.546875 -19.25 C 12.460938 -19.25 11.457031 -18.945312 10.53125 -18.34375 C 9.613281 -17.738281 8.96875 -16.8125 8.59375 -15.5625 Z M 18.6875 -15.5625 "/></g></g></g><g fill="#ffffff" fill-opacity="1"><g transform="translate(228.861859, 223.531274)"><g><path d="M 8.3125 -23.59375 C 9.125 -24.375 9.988281 -24.9375 10.90625 -25.28125 C 11.832031 -25.625 12.804688 -25.796875 13.828125 -25.796875 C 14.671875 -25.796875 15.625 -25.671875 16.6875 -25.421875 L 16.59375 -18.5 C 15.78125 -18.75 14.953125 -18.875 14.109375 -18.875 C 13.242188 -18.875 12.394531 -18.703125 11.5625 -18.359375 C 10.738281 -18.023438 10.0625 -17.503906 9.53125 -16.796875 C 9 -16.097656 8.734375 -15.171875 8.734375 -14.015625 L 8.734375 0 L 1.40625 0 L 1.40625 -25.28125 L 8.03125 -25.28125 Z M 8.3125 -23.59375 "/></g></g></g><g fill="#ffffff" fill-opacity="1"><g transform="translate(247.555565, 223.531274)"><g><path d="M 8.5 -22.765625 C 9.40625 -23.878906 10.539062 -24.640625 11.90625 -25.046875 C 13.28125 -25.453125 14.640625 -25.65625 15.984375 -25.65625 C 18.378906 -25.625 20.238281 -25.070312 21.5625 -24 C 22.882812 -22.925781 23.8125 -21.507812 24.34375 -19.75 C 24.875 -17.988281 25.125 -16.046875 25.09375 -13.921875 L 25.09375 0 L 17.625 0 L 17.625 -13.875 C 17.625 -15.59375 17.21875 -16.847656 16.40625 -17.640625 C 15.59375 -18.429688 14.6875 -18.828125 13.6875 -18.828125 C 12.976562 -18.828125 12.25 -18.625 11.5 -18.21875 C 10.75 -17.820312 10.125 -17.25 9.625 -16.5 C 9.125 -15.75 8.875 -14.828125 8.875 -13.734375 L 8.875 0 L 1.078125 0 L 1.078125 -25.28125 L 8.5 -25.28125 Z M 8.5 -22.765625 "/></g></g></g><g fill="#ffffff" fill-opacity="1"><g transform="translate(275.45595, 223.531274)"><g><path d="M 0.9375 -17.15625 C 0.9375 -19.207031 1.410156 -20.867188 2.359375 -22.140625 C 3.304688 -23.421875 4.570312 -24.363281 6.15625 -24.96875 C 7.75 -25.582031 9.484375 -25.890625 11.359375 -25.890625 C 13.160156 -25.890625 14.832031 -25.578125 16.375 -24.953125 C 17.914062 -24.328125 19.160156 -23.375 20.109375 -22.09375 C 21.066406 -20.820312 21.546875 -19.207031 21.546875 -17.25 L 14.484375 -17.25 C 14.484375 -17.894531 14.285156 -18.363281 13.890625 -18.65625 C 13.503906 -18.957031 13.046875 -19.144531 12.515625 -19.21875 C 11.992188 -19.300781 11.46875 -19.34375 10.9375 -19.34375 C 10.40625 -19.34375 9.84375 -19.222656 9.25 -18.984375 C 8.65625 -18.753906 8.359375 -18.300781 8.359375 -17.625 C 8.359375 -17.1875 8.535156 -16.875 8.890625 -16.6875 C 9.253906 -16.5 9.675781 -16.378906 10.15625 -16.328125 C 10.644531 -16.285156 11.0625 -16.25 11.40625 -16.21875 C 13.175781 -16.1875 14.867188 -15.890625 16.484375 -15.328125 C 18.109375 -14.765625 19.441406 -13.875 20.484375 -12.65625 C 21.535156 -11.445312 22.0625 -9.84375 22.0625 -7.84375 C 22.0625 -5.726562 21.550781 -4.046875 20.53125 -2.796875 C 19.519531 -1.554688 18.1875 -0.671875 16.53125 -0.140625 C 14.882812 0.390625 13.128906 0.65625 11.265625 0.65625 C 9.265625 0.65625 7.460938 0.34375 5.859375 -0.28125 C 4.253906 -0.90625 2.976562 -1.894531 2.03125 -3.25 C 1.082031 -4.601562 0.59375 -6.351562 0.5625 -8.5 L 7.9375 -8.5 C 7.96875 -7.632812 8.375 -7.019531 9.15625 -6.65625 C 9.9375 -6.300781 10.765625 -6.125 11.640625 -6.125 C 12.535156 -6.125 13.265625 -6.28125 13.828125 -6.59375 C 14.390625 -6.90625 14.671875 -7.265625 14.671875 -7.671875 C 14.671875 -8.285156 14.421875 -8.691406 13.921875 -8.890625 C 13.421875 -9.097656 12.851562 -9.21875 12.21875 -9.25 C 11.582031 -9.28125 11.0625 -9.3125 10.65625 -9.34375 C 9.0625 -9.5 7.523438 -9.832031 6.046875 -10.34375 C 4.566406 -10.863281 3.34375 -11.664062 2.375 -12.75 C 1.414062 -13.84375 0.9375 -15.3125 0.9375 -17.15625 Z M 0.9375 -17.15625 "/></g></g></g><g fill="#ffffff" fill-opacity="1"><g transform="translate(299.056767, 223.531274)"><g><path d="M 8.546875 -22.765625 C 9.453125 -23.878906 10.582031 -24.640625 11.9375 -25.046875 C 13.289062 -25.453125 14.640625 -25.65625 15.984375 -25.65625 C 18.378906 -25.625 20.242188 -25.070312 21.578125 -24 C 22.921875 -22.925781 23.847656 -21.507812 24.359375 -19.75 C 24.878906 -17.988281 25.125 -16.046875 25.09375 -13.921875 L 25.09375 0 L 17.671875 0 L 17.671875 -13.875 C 17.671875 -15.5625 17.269531 -16.785156 16.46875 -17.546875 C 15.675781 -18.304688 14.78125 -18.6875 13.78125 -18.6875 C 13.070312 -18.6875 12.332031 -18.484375 11.5625 -18.078125 C 10.800781 -17.679688 10.171875 -17.113281 9.671875 -16.375 C 9.171875 -15.644531 8.921875 -14.765625 8.921875 -13.734375 L 8.921875 0 L 1.125 0 L 1.125 -32.953125 L 8.546875 -32.953125 Z M 8.546875 -22.765625 "/></g></g></g><g fill="#ffffff" fill-opacity="1"><g transform="translate(326.957152, 223.531274)"><g><path d="M 1.03125 -30.84375 C 1.03125 -32.28125 1.488281 -33.351562 2.40625 -34.0625 C 3.320312 -34.78125 4.3125 -35.140625 5.375 -35.140625 C 6.5 -35.140625 7.523438 -34.789062 8.453125 -34.09375 C 9.390625 -33.394531 9.859375 -32.3125 9.859375 -30.84375 C 9.859375 -29.46875 9.40625 -28.4375 8.5 -27.75 C 7.601562 -27.070312 6.609375 -26.734375 5.515625 -26.734375 C 4.390625 -26.734375 3.359375 -27.070312 2.421875 -27.75 C 1.492188 -28.4375 1.03125 -29.46875 1.03125 -30.84375 Z M 1.734375 -25.28125 L 1.734375 0 L 9.203125 0 L 9.203125 -25.28125 Z M 1.734375 -25.28125 "/></g></g></g><g fill="#ffffff" fill-opacity="1"><g transform="translate(339.014578, 223.531274)"><g><path d="M 15.234375 0.421875 C 13.984375 0.421875 12.789062 0.203125 11.65625 -0.234375 C 10.519531 -0.671875 9.53125 -1.375 8.6875 -2.34375 L 8.6875 7.390625 L 1.40625 7.390625 L 1.40625 -25.28125 L 8.6875 -25.28125 L 8.6875 -22.765625 C 9.5625 -23.847656 10.582031 -24.59375 11.75 -25 C 12.914062 -25.40625 14.109375 -25.609375 15.328125 -25.609375 C 18.003906 -25.609375 20.238281 -24.984375 22.03125 -23.734375 C 23.820312 -22.492188 25.175781 -20.859375 26.09375 -18.828125 C 27.019531 -16.804688 27.484375 -14.628906 27.484375 -12.296875 C 27.484375 -9.984375 27.03125 -7.859375 26.125 -5.921875 C 25.21875 -3.992188 23.859375 -2.453125 22.046875 -1.296875 C 20.242188 -0.148438 17.972656 0.421875 15.234375 0.421875 Z M 14.4375 -18.546875 C 13.382812 -18.546875 12.421875 -18.273438 11.546875 -17.734375 C 10.671875 -17.191406 9.972656 -16.457031 9.453125 -15.53125 C 8.941406 -14.613281 8.6875 -13.597656 8.6875 -12.484375 C 8.6875 -11.359375 8.941406 -10.332031 9.453125 -9.40625 C 9.972656 -8.488281 10.671875 -7.75 11.546875 -7.1875 C 12.421875 -6.632812 13.382812 -6.359375 14.4375 -6.359375 C 15.71875 -6.359375 16.769531 -6.648438 17.59375 -7.234375 C 18.414062 -7.828125 19.035156 -8.597656 19.453125 -9.546875 C 19.878906 -10.503906 20.09375 -11.484375 20.09375 -12.484375 C 20.09375 -13.503906 19.878906 -14.472656 19.453125 -15.390625 C 19.035156 -16.316406 18.40625 -17.070312 17.5625 -17.65625 C 16.726562 -18.25 15.6875 -18.546875 14.4375 -18.546875 Z M 14.4375 -18.546875 "/></g></g></g><g fill="#189bc4" fill-opacity="1"><g transform="translate(130.522334, 239.623799)"><g><path d="M 0.453125 -6.328125 L 2 -6.328125 L 2 -1.5 L 4.65625 -1.5 L 4.65625 0 L 0.453125 0 Z M 0.453125 -6.328125 "/></g></g></g><g fill="#189bc4" fill-opacity="1"><g transform="translate(139.120303, 239.623799)"><g><path d="M 0.453125 -6.390625 L 4.625 -6.390625 L 4.625 -4.890625 L 2.015625 -4.890625 L 2.015625 -4 L 4.5625 -4 L 4.5625 -2.5 L 2.015625 -2.5 L 2.015625 -1.5 L 4.625 -1.5 L 4.625 0 L 0.453125 0 Z M 0.453125 -6.390625 "/></g></g></g><g fill="#189bc4" fill-opacity="1"><g transform="translate(147.781511, 239.623799)"><g><path d="M 2.609375 -6.40625 L 3.703125 -6.40625 L 6.34375 0 L 4.59375 0 L 4.25 -0.9375 L 2.078125 -0.9375 L 1.734375 0 L 0.078125 0 Z M 3.171875 -3.859375 L 2.703125 -2.515625 L 2.640625 -2.375 L 3.6875 -2.375 L 3.65625 -2.484375 Z M 3.171875 -3.859375 "/></g></g></g><g fill="#189bc4" fill-opacity="1"><g transform="translate(157.725706, 239.623799)"><g><path d="M 2.90625 -6.390625 C 3.394531 -6.390625 3.800781 -6.285156 4.125 -6.078125 C 4.445312 -5.867188 4.6875 -5.601562 4.84375 -5.28125 C 5.007812 -4.957031 5.09375 -4.625 5.09375 -4.28125 C 5.09375 -3.894531 4.988281 -3.515625 4.78125 -3.140625 C 4.582031 -2.773438 4.273438 -2.492188 3.859375 -2.296875 L 5.21875 -0.296875 L 5.21875 0 L 3.5625 0 L 2.25 -2.140625 L 1.984375 -2.140625 L 1.984375 0 L 0.453125 0 L 0.453125 -6.390625 Z M 2.875 -3.546875 C 3.101562 -3.546875 3.273438 -3.613281 3.390625 -3.75 C 3.515625 -3.894531 3.578125 -4.050781 3.578125 -4.21875 C 3.578125 -4.382812 3.519531 -4.539062 3.40625 -4.6875 C 3.289062 -4.832031 3.113281 -4.90625 2.875 -4.90625 L 1.984375 -4.90625 L 1.984375 -3.546875 Z M 2.875 -3.546875 "/></g></g></g><g fill="#189bc4" fill-opacity="1"><g transform="translate(166.83867, 239.623799)"><g><path d="M 3.828125 -6.328125 L 5.359375 -6.328125 L 5.359375 0 L 4.15625 0 L 1.984375 -3.078125 L 1.984375 0 L 0.453125 0 L 0.453125 -6.328125 L 1.640625 -6.328125 L 3.828125 -3.171875 Z M 3.828125 -6.328125 "/></g></g></g><g fill="#189bc4" fill-opacity="1"><g transform="translate(176.294968, 239.623799)"><g/></g></g><g fill="#189bc4" fill-opacity="1"><g transform="translate(182.182403, 239.623799)"><g><path d="M 5.25 -6.40625 L 5.25 -4.953125 L 3.5625 -4.953125 L 3.5625 0 L 2.015625 0 L 2.015625 -4.953125 L 0.296875 -4.953125 L 0.296875 -6.40625 Z M 5.25 -6.40625 "/></g></g></g><g fill="#189bc4" fill-opacity="1"><g transform="translate(191.46704, 239.623799)"><g><path d="M 0.46875 -3.15625 C 0.46875 -3.625 0.550781 -4.054688 0.71875 -4.453125 C 0.882812 -4.847656 1.117188 -5.191406 1.421875 -5.484375 C 1.722656 -5.785156 2.070312 -6.019531 2.46875 -6.1875 C 2.863281 -6.351562 3.285156 -6.4375 3.734375 -6.4375 C 4.191406 -6.4375 4.617188 -6.351562 5.015625 -6.1875 C 5.410156 -6.019531 5.753906 -5.785156 6.046875 -5.484375 C 6.347656 -5.191406 6.582031 -4.847656 6.75 -4.453125 C 6.925781 -4.054688 7.015625 -3.625 7.015625 -3.15625 C 7.015625 -2.695312 6.925781 -2.269531 6.75 -1.875 C 6.582031 -1.476562 6.347656 -1.132812 6.046875 -0.84375 C 5.753906 -0.550781 5.410156 -0.320312 5.015625 -0.15625 C 4.617188 0.0078125 4.191406 0.09375 3.734375 0.09375 C 3.285156 0.09375 2.863281 0.015625 2.46875 -0.140625 C 2.070312 -0.304688 1.722656 -0.535156 1.421875 -0.828125 C 1.117188 -1.128906 0.882812 -1.472656 0.71875 -1.859375 C 0.550781 -2.253906 0.46875 -2.6875 0.46875 -3.15625 Z M 2 -3.15625 C 2 -2.757812 2.082031 -2.425781 2.25 -2.15625 C 2.414062 -1.894531 2.628906 -1.695312 2.890625 -1.5625 C 3.148438 -1.4375 3.425781 -1.375 3.71875 -1.375 C 4.007812 -1.375 4.285156 -1.4375 4.546875 -1.5625 C 4.816406 -1.695312 5.035156 -1.894531 5.203125 -2.15625 C 5.378906 -2.425781 5.46875 -2.757812 5.46875 -3.15625 C 5.46875 -3.550781 5.378906 -3.878906 5.203125 -4.140625 C 5.035156 -4.410156 4.820312 -4.613281 4.5625 -4.75 C 4.300781 -4.882812 4.023438 -4.953125 3.734375 -4.953125 C 3.441406 -4.953125 3.160156 -4.882812 2.890625 -4.75 C 2.628906 -4.613281 2.414062 -4.414062 2.25 -4.15625 C 2.082031 -3.894531 2 -3.5625 2 -3.15625 Z M 2 -3.15625 "/></g></g></g><g fill="#189bc4" fill-opacity="1"><g transform="translate(202.558699, 239.623799)"><g><path d="M 2.953125 -6.328125 C 3.484375 -6.328125 3.941406 -6.238281 4.328125 -6.0625 C 4.722656 -5.882812 5.050781 -5.644531 5.3125 -5.34375 C 5.570312 -5.039062 5.765625 -4.695312 5.890625 -4.3125 C 6.023438 -3.9375 6.09375 -3.550781 6.09375 -3.15625 C 6.09375 -2.757812 6.023438 -2.375 5.890625 -2 C 5.765625 -1.625 5.570312 -1.285156 5.3125 -0.984375 C 5.050781 -0.679688 4.722656 -0.441406 4.328125 -0.265625 C 3.941406 -0.0859375 3.484375 0 2.953125 0 L 0.4375 0 L 0.4375 -6.328125 Z M 2.953125 -1.46875 C 3.304688 -1.46875 3.601562 -1.550781 3.84375 -1.71875 C 4.082031 -1.882812 4.257812 -2.09375 4.375 -2.34375 C 4.5 -2.601562 4.5625 -2.875 4.5625 -3.15625 C 4.5625 -3.4375 4.5 -3.707031 4.375 -3.96875 C 4.257812 -4.226562 4.082031 -4.441406 3.84375 -4.609375 C 3.601562 -4.773438 3.304688 -4.859375 2.953125 -4.859375 L 1.984375 -4.859375 L 1.984375 -1.46875 Z M 2.953125 -1.46875 "/></g></g></g><g fill="#189bc4" fill-opacity="1"><g transform="translate(212.539033, 239.623799)"><g><path d="M 2.609375 -6.40625 L 3.703125 -6.40625 L 6.34375 0 L 4.59375 0 L 4.25 -0.9375 L 2.078125 -0.9375 L 1.734375 0 L 0.078125 0 Z M 3.171875 -3.859375 L 2.703125 -2.515625 L 2.640625 -2.375 L 3.6875 -2.375 L 3.65625 -2.484375 Z M 3.171875 -3.859375 "/></g></g></g><g fill="#189bc4" fill-opacity="1"><g transform="translate(222.483228, 239.623799)"><g><path d="M 2.375 -2.546875 L 0.109375 -6.1875 L 0.109375 -6.328125 L 1.8125 -6.328125 L 2.4375 -5.3125 L 3.15625 -4.03125 L 3.90625 -5.40625 L 4.484375 -6.328125 L 6.203125 -6.328125 L 6.203125 -6.171875 L 3.921875 -2.5625 L 3.921875 0 L 2.375 0 Z M 2.375 -2.546875 "/></g></g></g><g fill="#189bc4" fill-opacity="1"><g transform="translate(232.436463, 239.623799)"><g><path d="M 1.9375 -1.0625 L 1.9375 -0.640625 L 1.03125 1.015625 L -0.328125 1.015625 L 0.5 -1.0625 Z M 1.9375 -1.0625 "/></g></g></g><g fill="#189bc4" fill-opacity="1"><g transform="translate(238.631092, 239.623799)"><g/></g></g><g fill="#189bc4" fill-opacity="1"><g transform="translate(244.518527, 239.623799)"><g><path d="M 0.453125 -6.328125 L 2 -6.328125 L 2 -1.5 L 4.65625 -1.5 L 4.65625 0 L 0.453125 0 Z M 0.453125 -6.328125 "/></g></g></g><g fill="#189bc4" fill-opacity="1"><g transform="translate(253.116496, 239.623799)"><g><path d="M 0.453125 -6.390625 L 4.625 -6.390625 L 4.625 -4.890625 L 2.015625 -4.890625 L 2.015625 -4 L 4.5625 -4 L 4.5625 -2.5 L 2.015625 -2.5 L 2.015625 -1.5 L 4.625 -1.5 L 4.625 0 L 0.453125 0 Z M 0.453125 -6.390625 "/></g></g></g><g fill="#189bc4" fill-opacity="1"><g transform="translate(261.777704, 239.623799)"><g><path d="M 2.609375 -6.40625 L 3.703125 -6.40625 L 6.34375 0 L 4.59375 0 L 4.25 -0.9375 L 2.078125 -0.9375 L 1.734375 0 L 0.078125 0 Z M 3.171875 -3.859375 L 2.703125 -2.515625 L 2.640625 -2.375 L 3.6875 -2.375 L 3.65625 -2.484375 Z M 3.171875 -3.859375 "/></g></g></g><g fill="#189bc4" fill-opacity="1"><g transform="translate(271.721899, 239.623799)"><g><path d="M 2.953125 -6.328125 C 3.484375 -6.328125 3.941406 -6.238281 4.328125 -6.0625 C 4.722656 -5.882812 5.050781 -5.644531 5.3125 -5.34375 C 5.570312 -5.039062 5.765625 -4.695312 5.890625 -4.3125 C 6.023438 -3.9375 6.09375 -3.550781 6.09375 -3.15625 C 6.09375 -2.757812 6.023438 -2.375 5.890625 -2 C 5.765625 -1.625 5.570312 -1.285156 5.3125 -0.984375 C 5.050781 -0.679688 4.722656 -0.441406 4.328125 -0.265625 C 3.941406 -0.0859375 3.484375 0 2.953125 0 L 0.4375 0 L 0.4375 -6.328125 Z M 2.953125 -1.46875 C 3.304688 -1.46875 3.601562 -1.550781 3.84375 -1.71875 C 4.082031 -1.882812 4.257812 -2.09375 4.375 -2.34375 C 4.5 -2.601562 4.5625 -2.875 4.5625 -3.15625 C 4.5625 -3.4375 4.5 -3.707031 4.375 -3.96875 C 4.257812 -4.226562 4.082031 -4.441406 3.84375 -4.609375 C 3.601562 -4.773438 3.304688 -4.859375 2.953125 -4.859375 L 1.984375 -4.859375 L 1.984375 -1.46875 Z M 2.953125 -1.46875 "/></g></g></g><g fill="#189bc4" fill-opacity="1"><g transform="translate(281.702233, 239.623799)"><g/></g></g><g fill="#189bc4" fill-opacity="1"><g transform="translate(287.589669, 239.623799)"><g><path d="M 5.25 -6.40625 L 5.25 -4.953125 L 3.5625 -4.953125 L 3.5625 0 L 2.015625 0 L 2.015625 -4.953125 L 0.296875 -4.953125 L 0.296875 -6.40625 Z M 5.25 -6.40625 "/></g></g></g><g fill="#189bc4" fill-opacity="1"><g transform="translate(296.874305, 239.623799)"><g><path d="M 0.46875 -3.15625 C 0.46875 -3.625 0.550781 -4.054688 0.71875 -4.453125 C 0.882812 -4.847656 1.117188 -5.191406 1.421875 -5.484375 C 1.722656 -5.785156 2.070312 -6.019531 2.46875 -6.1875 C 2.863281 -6.351562 3.285156 -6.4375 3.734375 -6.4375 C 4.191406 -6.4375 4.617188 -6.351562 5.015625 -6.1875 C 5.410156 -6.019531 5.753906 -5.785156 6.046875 -5.484375 C 6.347656 -5.191406 6.582031 -4.847656 6.75 -4.453125 C 6.925781 -4.054688 7.015625 -3.625 7.015625 -3.15625 C 7.015625 -2.695312 6.925781 -2.269531 6.75 -1.875 C 6.582031 -1.476562 6.347656 -1.132812 6.046875 -0.84375 C 5.753906 -0.550781 5.410156 -0.320312 5.015625 -0.15625 C 4.617188 0.0078125 4.191406 0.09375 3.734375 0.09375 C 3.285156 0.09375 2.863281 0.015625 2.46875 -0.140625 C 2.070312 -0.304688 1.722656 -0.535156 1.421875 -0.828125 C 1.117188 -1.128906 0.882812 -1.472656 0.71875 -1.859375 C 0.550781 -2.253906 0.46875 -2.6875 0.46875 -3.15625 Z M 2 -3.15625 C 2 -2.757812 2.082031 -2.425781 2.25 -2.15625 C 2.414062 -1.894531 2.628906 -1.695312 2.890625 -1.5625 C 3.148438 -1.4375 3.425781 -1.375 3.71875 -1.375 C 4.007812 -1.375 4.285156 -1.4375 4.546875 -1.5625 C 4.816406 -1.695312 5.035156 -1.894531 5.203125 -2.15625 C 5.378906 -2.425781 5.46875 -2.757812 5.46875 -3.15625 C 5.46875 -3.550781 5.378906 -3.878906 5.203125 -4.140625 C 5.035156 -4.410156 4.820312 -4.613281 4.5625 -4.75 C 4.300781 -4.882812 4.023438 -4.953125 3.734375 -4.953125 C 3.441406 -4.953125 3.160156 -4.882812 2.890625 -4.75 C 2.628906 -4.613281 2.414062 -4.414062 2.25 -4.15625 C 2.082031 -3.894531 2 -3.5625 2 -3.15625 Z M 2 -3.15625 "/></g></g></g><g fill="#189bc4" fill-opacity="1"><g transform="translate(307.965964, 239.623799)"><g><path d="M 3.34375 -3.875 L 5.015625 -6.328125 L 6.21875 -6.328125 L 6.21875 0 L 4.6875 0 L 4.6875 -3.125 L 3.765625 -1.78125 L 2.90625 -1.78125 L 2 -3.140625 L 2 0 L 0.453125 0 L 0.453125 -6.328125 L 1.6875 -6.328125 Z M 3.34375 -3.875 "/></g></g></g><g fill="#189bc4" fill-opacity="1"><g transform="translate(318.289633, 239.623799)"><g><path d="M 0.46875 -3.15625 C 0.46875 -3.625 0.550781 -4.054688 0.71875 -4.453125 C 0.882812 -4.847656 1.117188 -5.191406 1.421875 -5.484375 C 1.722656 -5.785156 2.070312 -6.019531 2.46875 -6.1875 C 2.863281 -6.351562 3.285156 -6.4375 3.734375 -6.4375 C 4.191406 -6.4375 4.617188 -6.351562 5.015625 -6.1875 C 5.410156 -6.019531 5.753906 -5.785156 6.046875 -5.484375 C 6.347656 -5.191406 6.582031 -4.847656 6.75 -4.453125 C 6.925781 -4.054688 7.015625 -3.625 7.015625 -3.15625 C 7.015625 -2.695312 6.925781 -2.269531 6.75 -1.875 C 6.582031 -1.476562 6.347656 -1.132812 6.046875 -0.84375 C 5.753906 -0.550781 5.410156 -0.320312 5.015625 -0.15625 C 4.617188 0.0078125 4.191406 0.09375 3.734375 0.09375 C 3.285156 0.09375 2.863281 0.015625 2.46875 -0.140625 C 2.070312 -0.304688 1.722656 -0.535156 1.421875 -0.828125 C 1.117188 -1.128906 0.882812 -1.472656 0.71875 -1.859375 C 0.550781 -2.253906 0.46875 -2.6875 0.46875 -3.15625 Z M 2 -3.15625 C 2 -2.757812 2.082031 -2.425781 2.25 -2.15625 C 2.414062 -1.894531 2.628906 -1.695312 2.890625 -1.5625 C 3.148438 -1.4375 3.425781 -1.375 3.71875 -1.375 C 4.007812 -1.375 4.285156 -1.4375 4.546875 -1.5625 C 4.816406 -1.695312 5.035156 -1.894531 5.203125 -2.15625 C 5.378906 -2.425781 5.46875 -2.757812 5.46875 -3.15625 C 5.46875 -3.550781 5.378906 -3.878906 5.203125 -4.140625 C 5.035156 -4.410156 4.820312 -4.613281 4.5625 -4.75 C 4.300781 -4.882812 4.023438 -4.953125 3.734375 -4.953125 C 3.441406 -4.953125 3.160156 -4.882812 2.890625 -4.75 C 2.628906 -4.613281 2.414062 -4.414062 2.25 -4.15625 C 2.082031 -3.894531 2 -3.5625 2 -3.15625 Z M 2 -3.15625 "/></g></g></g><g fill="#189bc4" fill-opacity="1"><g transform="translate(329.381292, 239.623799)"><g><path d="M 2.90625 -6.390625 C 3.394531 -6.390625 3.800781 -6.285156 4.125 -6.078125 C 4.445312 -5.867188 4.6875 -5.601562 4.84375 -5.28125 C 5.007812 -4.957031 5.09375 -4.625 5.09375 -4.28125 C 5.09375 -3.894531 4.988281 -3.515625 4.78125 -3.140625 C 4.582031 -2.773438 4.273438 -2.492188 3.859375 -2.296875 L 5.21875 -0.296875 L 5.21875 0 L 3.5625 0 L 2.25 -2.140625 L 1.984375 -2.140625 L 1.984375 0 L 0.453125 0 L 0.453125 -6.390625 Z M 2.875 -3.546875 C 3.101562 -3.546875 3.273438 -3.613281 3.390625 -3.75 C 3.515625 -3.894531 3.578125 -4.050781 3.578125 -4.21875 C 3.578125 -4.382812 3.519531 -4.539062 3.40625 -4.6875 C 3.289062 -4.832031 3.113281 -4.90625 2.875 -4.90625 L 1.984375 -4.90625 L 1.984375 -3.546875 Z M 2.875 -3.546875 "/></g></g></g><g fill="#189bc4" fill-opacity="1"><g transform="translate(338.494244, 239.623799)"><g><path d="M 2.90625 -6.390625 C 3.394531 -6.390625 3.800781 -6.285156 4.125 -6.078125 C 4.445312 -5.867188 4.6875 -5.601562 4.84375 -5.28125 C 5.007812 -4.957031 5.09375 -4.625 5.09375 -4.28125 C 5.09375 -3.894531 4.988281 -3.515625 4.78125 -3.140625 C 4.582031 -2.773438 4.273438 -2.492188 3.859375 -2.296875 L 5.21875 -0.296875 L 5.21875 0 L 3.5625 0 L 2.25 -2.140625 L 1.984375 -2.140625 L 1.984375 0 L 0.453125 0 L 0.453125 -6.390625 Z M 2.875 -3.546875 C 3.101562 -3.546875 3.273438 -3.613281 3.390625 -3.75 C 3.515625 -3.894531 3.578125 -4.050781 3.578125 -4.21875 C 3.578125 -4.382812 3.519531 -4.539062 3.40625 -4.6875 C 3.289062 -4.832031 3.113281 -4.90625 2.875 -4.90625 L 1.984375 -4.90625 L 1.984375 -3.546875 Z M 2.875 -3.546875 "/></g></g></g><g fill="#189bc4" fill-opacity="1"><g transform="translate(347.60722, 239.623799)"><g><path d="M 0.46875 -3.15625 C 0.46875 -3.625 0.550781 -4.054688 0.71875 -4.453125 C 0.882812 -4.847656 1.117188 -5.191406 1.421875 -5.484375 C 1.722656 -5.785156 2.070312 -6.019531 2.46875 -6.1875 C 2.863281 -6.351562 3.285156 -6.4375 3.734375 -6.4375 C 4.191406 -6.4375 4.617188 -6.351562 5.015625 -6.1875 C 5.410156 -6.019531 5.753906 -5.785156 6.046875 -5.484375 C 6.347656 -5.191406 6.582031 -4.847656 6.75 -4.453125 C 6.925781 -4.054688 7.015625 -3.625 7.015625 -3.15625 C 7.015625 -2.695312 6.925781 -2.269531 6.75 -1.875 C 6.582031 -1.476562 6.347656 -1.132812 6.046875 -0.84375 C 5.753906 -0.550781 5.410156 -0.320312 5.015625 -0.15625 C 4.617188 0.0078125 4.191406 0.09375 3.734375 0.09375 C 3.285156 0.09375 2.863281 0.015625 2.46875 -0.140625 C 2.070312 -0.304688 1.722656 -0.535156 1.421875 -0.828125 C 1.117188 -1.128906 0.882812 -1.472656 0.71875 -1.859375 C 0.550781 -2.253906 0.46875 -2.6875 0.46875 -3.15625 Z M 2 -3.15625 C 2 -2.757812 2.082031 -2.425781 2.25 -2.15625 C 2.414062 -1.894531 2.628906 -1.695312 2.890625 -1.5625 C 3.148438 -1.4375 3.425781 -1.375 3.71875 -1.375 C 4.007812 -1.375 4.285156 -1.4375 4.546875 -1.5625 C 4.816406 -1.695312 5.035156 -1.894531 5.203125 -2.15625 C 5.378906 -2.425781 5.46875 -2.757812 5.46875 -3.15625 C 5.46875 -3.550781 5.378906 -3.878906 5.203125 -4.140625 C 5.035156 -4.410156 4.820312 -4.613281 4.5625 -4.75 C 4.300781 -4.882812 4.023438 -4.953125 3.734375 -4.953125 C 3.441406 -4.953125 3.160156 -4.882812 2.890625 -4.75 C 2.628906 -4.613281 2.414062 -4.414062 2.25 -4.15625 C 2.082031 -3.894531 2 -3.5625 2 -3.15625 Z M 2 -3.15625 "/></g></g></g><g fill="#189bc4" fill-opacity="1"><g transform="translate(358.698879, 239.623799)"><g><path d="M 6.515625 0.03125 L 5.140625 0.03125 L 4.34375 -2.15625 L 3.578125 0.03125 L 2.203125 0.03125 L 0.15625 -6.140625 L 0.15625 -6.328125 L 1.703125 -6.328125 L 2.90625 -2.671875 L 3.703125 -4.890625 L 5.015625 -4.890625 L 5.8125 -2.671875 L 7.015625 -6.328125 L 8.5625 -6.328125 L 8.5625 -6.140625 Z M 6.515625 0.03125 "/></g></g></g><g clip-path="url(#5b6cf8dc73)"><path fill="#ffffff" d="M 87.472656 197.410156 L 87.472656 224.5625 C 87.472656 228.414062 84.351562 231.535156 80.5 231.535156 C 76.652344 231.535156 73.53125 228.414062 73.53125 224.5625 L 73.53125 197.410156 C 75.261719 199.296875 77.746094 200.480469 80.5 200.480469 C 83.257812 200.480469 85.742188 199.296875 87.472656 197.410156 " fill-opacity="1" fill-rule="evenodd"/></g><g clip-path="url(#21032139b4)"><path fill="#ffffff" d="M 87.472656 191.03125 C 87.472656 194.882812 84.351562 198.003906 80.5 198.003906 C 76.652344 198.003906 73.53125 194.882812 73.53125 191.03125 C 73.53125 187.183594 76.652344 184.0625 80.5 184.0625 C 84.351562 184.0625 87.472656 187.183594 87.472656 191.03125 " fill-opacity="1" fill-rule="evenodd"/></g><g fill="#ffde59" fill-opacity="1"><g transform="translate(89.137792, 227.365898)"><g><path d="M 14.140625 -19.484375 C 15.796875 -19.484375 16.957031 -19.941406 17.625 -20.859375 C 18.300781 -21.785156 18.640625 -22.785156 18.640625 -23.859375 C 18.640625 -25.046875 18.332031 -25.988281 17.71875 -26.6875 C 17.113281 -27.394531 16.332031 -27.894531 15.375 -28.1875 C 14.414062 -28.488281 13.421875 -28.640625 12.390625 -28.640625 C 11.140625 -28.640625 9.96875 -28.300781 8.875 -27.625 C 7.78125 -26.957031 7.078125 -25.984375 6.765625 -24.703125 L 2.484375 -25.734375 C 2.890625 -27.390625 3.59375 -28.765625 4.59375 -29.859375 C 5.601562 -30.953125 6.796875 -31.773438 8.171875 -32.328125 C 9.546875 -32.878906 10.953125 -33.15625 12.390625 -33.15625 C 14.179688 -33.15625 15.90625 -32.835938 17.5625 -32.203125 C 19.21875 -31.578125 20.59375 -30.582031 21.6875 -29.21875 C 22.78125 -27.863281 23.328125 -26.078125 23.328125 -23.859375 C 23.328125 -22.566406 23.125 -21.390625 22.71875 -20.328125 C 22.3125 -19.265625 21.515625 -18.328125 20.328125 -17.515625 C 21.796875 -16.671875 22.867188 -15.488281 23.546875 -13.96875 C 24.222656 -12.445312 24.5625 -10.890625 24.5625 -9.296875 C 24.5625 -7.703125 24.117188 -6.144531 23.234375 -4.625 C 22.359375 -3.101562 21.046875 -1.84375 19.296875 -0.84375 C 17.546875 0.15625 15.335938 0.65625 12.671875 0.65625 C 10.328125 0.65625 8.378906 0.257812 6.828125 -0.53125 C 5.273438 -1.332031 4.066406 -2.390625 3.203125 -3.703125 C 2.347656 -5.023438 1.796875 -6.4375 1.546875 -7.9375 L 5.96875 -8.734375 C 6.1875 -7.421875 6.84375 -6.257812 7.9375 -5.25 C 9.03125 -4.25 10.609375 -3.75 12.671875 -3.75 C 14.429688 -3.75 15.847656 -4.046875 16.921875 -4.640625 C 18.003906 -5.242188 18.800781 -5.988281 19.3125 -6.875 C 19.832031 -7.769531 20.09375 -8.671875 20.09375 -9.578125 C 20.09375 -10.359375 19.890625 -11.175781 19.484375 -12.03125 C 19.078125 -12.894531 18.441406 -13.632812 17.578125 -14.25 C 16.722656 -14.863281 15.578125 -15.171875 14.140625 -15.171875 L 9.203125 -15.171875 L 9.203125 -19.484375 Z M 14.140625 -19.484375 "/></g></g></g><g clip-path="url(#5d54f85093)"><g clip-path="url(#aa2be3310d)"><g clip-path="url(#0fac466485)"><path fill="#ffbd59" d="M 82.695312 176.042969 C 82.695312 176.042969 61.058594 140.082031 82.804688 105.664062 C 82.804688 105.664062 111.929688 146.457031 82.695312 176.042969 Z M 82.695312 176.042969 " fill-opacity="1" fill-rule="nonzero"/></g></g></g><g clip-path="url(#81047b6b39)"><g clip-path="url(#3a736e9ac0)"><g clip-path="url(#7e0392abab)"><path fill="#ffffff" d="M 73.46875 179.992188 C 73.46875 179.992188 35.753906 173.378906 25.0625 137.808594 C 25.0625 137.808594 70.585938 142.15625 73.46875 179.992188 Z M 73.46875 179.992188 " fill-opacity="1" fill-rule="nonzero"/></g></g></g><g clip-path="url(#4954336b2e)"><g clip-path="url(#5a32873a26)"><g clip-path="url(#ed5dffe302)"><path fill="#38b6ff" d="M 61.890625 187.789062 C 61.890625 187.789062 32.253906 206.726562 2.933594 189.277344 C 2.933594 189.277344 36.453125 163.964844 61.890625 187.789062 Z M 61.890625 187.789062 " fill-opacity="1" fill-rule="nonzero"/></g></g></g><g clip-path="url(#1089dbe76a)"><g clip-path="url(#4e77895d23)"><g clip-path="url(#a3a9305f4c)"><path fill="#ffffff" d="M 54.453125 201.433594 C 54.453125 201.433594 40.269531 229.304688 9.9375 229.144531 C 9.9375 229.144531 24.222656 194.636719 54.453125 201.433594 Z M 54.453125 201.433594 " fill-opacity="1" fill-rule="nonzero"/></g></g></g><g clip-path="url(#6cae72c7ed)"><g clip-path="url(#d8044e6877)"><g clip-path="url(#ecff2d9a9d)"><path fill="#ff3131" d="M 52.722656 217.152344 C 52.722656 217.152344 58.695312 243.695312 38.289062 260.429688 C 38.289062 260.429688 28.695312 229.386719 52.722656 217.152344 Z M 52.722656 217.152344 " fill-opacity="1" fill-rule="nonzero"/></g></g></g><g clip-path="url(#9077b96161)"><g clip-path="url(#da2144be29)"><g clip-path="url(#b7a973ff63)"><path fill="#ffffff" d="M 70.523438 268.789062 C 70.523438 268.789062 53.164062 252.925781 59.359375 230.96875 C 59.359375 230.96875 81.511719 248.238281 70.523438 268.789062 Z M 70.523438 268.789062 " fill-opacity="1" fill-rule="nonzero"/></g></g></g><g clip-path="url(#8c3fc4b2b9)"><g clip-path="url(#469d26378b)"><g clip-path="url(#5dfffd3a34)"><path fill="#00bf63" d="M 78.925781 244.292969 C 78.925781 244.292969 99.902344 243.726562 109.53125 261.660156 C 109.53125 261.660156 84.609375 264.296875 78.925781 244.292969 Z M 78.925781 244.292969 " fill-opacity="1" fill-rule="nonzero"/></g></g></g><g clip-path="url(#2141d11631)"><g clip-path="url(#8f9a9fe702)"><g clip-path="url(#3790c988de)"><path fill="#ffffff" d="M 94.9375 240.753906 C 94.9375 240.753906 105.679688 232.457031 117.550781 238.160156 C 117.550781 238.160156 105.53125 249.039062 94.9375 240.753906 Z M 94.9375 240.753906 " fill-opacity="1" fill-rule="nonzero"/></g></g></g><g transform="matrix(1, 0, 0, 1, 106, 157)"><g clip-path="url(#0ecea86bee)"><g fill="#ffffff" fill-opacity="1"><g transform="translate(0.312714, 25.095772)"><g><path d="M 5.203125 0 L 1.671875 0 L 1.671875 -18.703125 L 5.203125 -18.703125 Z M 5.203125 0 "/></g></g></g><g fill="#ffffff" fill-opacity="1"><g transform="translate(5.827733, 25.095772)"><g><path d="M 4.8125 0 L 1.5 0 L 1.5 -13.75 L 4.8125 -13.75 L 4.8125 -12.015625 C 5.363281 -12.785156 5.941406 -13.316406 6.546875 -13.609375 C 7.148438 -13.898438 7.820312 -14.046875 8.5625 -14.046875 C 9.8125 -14.046875 10.757812 -13.820312 11.40625 -13.375 C 12.050781 -12.925781 12.53125 -12.382812 12.84375 -11.75 C 13.125 -11.132812 13.285156 -10.515625 13.328125 -9.890625 C 13.378906 -9.265625 13.40625 -8.609375 13.40625 -7.921875 L 13.40625 0 L 10.125 0 L 10.125 -7.96875 C 10.125 -8.664062 10.066406 -9.234375 9.953125 -9.671875 C 9.835938 -10.109375 9.664062 -10.457031 9.4375 -10.71875 C 9.039062 -11.125 8.460938 -11.328125 7.703125 -11.328125 C 6.765625 -11.328125 6.066406 -11.050781 5.609375 -10.5 C 5.335938 -10.164062 5.132812 -9.726562 5 -9.1875 C 4.875 -8.65625 4.8125 -7.929688 4.8125 -7.015625 Z M 4.8125 0 "/></g></g></g><g fill="#ffffff" fill-opacity="1"><g transform="translate(19.30961, 25.095772)"><g><path d="M 8.53125 0 L 5.8125 0 C 4.800781 0 4.007812 -0.234375 3.4375 -0.703125 C 2.875 -1.179688 2.59375 -1.953125 2.59375 -3.015625 L 2.59375 -11.109375 L 0.5625 -11.109375 L 0.5625 -13.75 L 2.59375 -13.75 L 2.59375 -18.703125 L 5.90625 -18.703125 L 5.90625 -13.75 L 8.5625 -13.75 L 8.5625 -11.109375 L 5.90625 -11.109375 L 5.90625 -4.015625 C 5.90625 -3.660156 5.96875 -3.359375 6.09375 -3.109375 C 6.21875 -2.867188 6.53125 -2.75 7.03125 -2.75 L 8.53125 -2.75 Z M 8.53125 0 "/></g></g></g><g fill="#ffffff" fill-opacity="1"><g transform="translate(27.349507, 25.095772)"><g><path d="M 7.9375 0.265625 C 6.53125 0.265625 5.300781 -0.0351562 4.25 -0.640625 C 3.195312 -1.253906 2.378906 -2.09375 1.796875 -3.15625 C 1.222656 -4.21875 0.9375 -5.429688 0.9375 -6.796875 C 0.9375 -7.691406 1.070312 -8.570312 1.34375 -9.4375 C 1.625 -10.300781 2.050781 -11.082031 2.625 -11.78125 C 3.195312 -12.476562 3.914062 -13.03125 4.78125 -13.4375 C 5.644531 -13.84375 6.664062 -14.046875 7.84375 -14.046875 C 8.726562 -14.046875 9.582031 -13.90625 10.40625 -13.625 C 11.226562 -13.351562 11.96875 -12.925781 12.625 -12.34375 C 13.28125 -11.757812 13.800781 -11.019531 14.1875 -10.125 C 14.570312 -9.226562 14.765625 -8.15625 14.765625 -6.90625 L 14.765625 -6.203125 L 4.359375 -6.203125 C 4.390625 -5.910156 4.453125 -5.617188 4.546875 -5.328125 C 4.648438 -5.046875 4.757812 -4.796875 4.875 -4.578125 C 5.207031 -3.941406 5.644531 -3.445312 6.1875 -3.09375 C 6.738281 -2.75 7.363281 -2.578125 8.0625 -2.578125 C 8.851562 -2.578125 9.507812 -2.78125 10.03125 -3.1875 C 10.5625 -3.59375 10.9375 -4.078125 11.15625 -4.640625 L 14.53125 -4.640625 C 14.269531 -3.753906 13.851562 -2.9375 13.28125 -2.1875 C 12.707031 -1.445312 11.976562 -0.851562 11.09375 -0.40625 C 10.21875 0.0390625 9.164062 0.265625 7.9375 0.265625 Z M 4.515625 -8.671875 L 11.375 -8.671875 C 11.351562 -8.859375 11.304688 -9.066406 11.234375 -9.296875 C 11.160156 -9.523438 11.035156 -9.742188 10.859375 -9.953125 C 10.546875 -10.441406 10.128906 -10.804688 9.609375 -11.046875 C 9.097656 -11.296875 8.539062 -11.421875 7.9375 -11.421875 C 7.332031 -11.421875 6.78125 -11.296875 6.28125 -11.046875 C 5.789062 -10.804688 5.378906 -10.441406 5.046875 -9.953125 C 4.867188 -9.742188 4.742188 -9.523438 4.671875 -9.296875 C 4.597656 -9.066406 4.546875 -8.859375 4.515625 -8.671875 Z M 4.515625 -8.671875 "/></g></g></g><g fill="#ffffff" fill-opacity="1"><g transform="translate(41.689353, 25.095772)"><g><path d="M 4.8125 0 L 1.5 0 L 1.5 -13.75 L 4.8125 -13.75 L 4.8125 -12.109375 C 5.332031 -12.828125 5.914062 -13.328125 6.5625 -13.609375 C 7.207031 -13.898438 7.929688 -14.046875 8.734375 -14.046875 L 9.125 -14.046875 L 9.125 -10.859375 L 8.359375 -10.859375 C 7.804688 -10.859375 7.328125 -10.785156 6.921875 -10.640625 C 6.523438 -10.492188 6.1875 -10.289062 5.90625 -10.03125 C 5.550781 -9.664062 5.28125 -9.191406 5.09375 -8.609375 C 4.90625 -8.035156 4.8125 -7.289062 4.8125 -6.375 Z M 4.8125 0 "/></g></g></g><g fill="#ffffff" fill-opacity="1"><g transform="translate(49.925362, 25.095772)"><g><path d="M 4.8125 0 L 1.5 0 L 1.5 -13.75 L 4.8125 -13.75 L 4.8125 -12.015625 C 5.363281 -12.785156 5.941406 -13.316406 6.546875 -13.609375 C 7.148438 -13.898438 7.820312 -14.046875 8.5625 -14.046875 C 9.8125 -14.046875 10.757812 -13.820312 11.40625 -13.375 C 12.050781 -12.925781 12.53125 -12.382812 12.84375 -11.75 C 13.125 -11.132812 13.285156 -10.515625 13.328125 -9.890625 C 13.378906 -9.265625 13.40625 -8.609375 13.40625 -7.921875 L 13.40625 0 L 10.125 0 L 10.125 -7.96875 C 10.125 -8.664062 10.066406 -9.234375 9.953125 -9.671875 C 9.835938 -10.109375 9.664062 -10.457031 9.4375 -10.71875 C 9.039062 -11.125 8.460938 -11.328125 7.703125 -11.328125 C 6.765625 -11.328125 6.066406 -11.050781 5.609375 -10.5 C 5.335938 -10.164062 5.132812 -9.726562 5 -9.1875 C 4.875 -8.65625 4.8125 -7.929688 4.8125 -7.015625 Z M 4.8125 0 "/></g></g></g><g fill="#ffffff" fill-opacity="1"><g transform="translate(63.407239, 25.095772)"><g><path d="M 5.46875 0.265625 C 4.175781 0.265625 3.097656 -0.078125 2.234375 -0.765625 C 1.378906 -1.460938 0.953125 -2.46875 0.953125 -3.78125 C 0.953125 -4.507812 1.09375 -5.128906 1.375 -5.640625 C 1.664062 -6.160156 2.050781 -6.582031 2.53125 -6.90625 C 2.96875 -7.21875 3.46875 -7.460938 4.03125 -7.640625 C 4.59375 -7.828125 5.160156 -7.976562 5.734375 -8.09375 L 9.828125 -8.84375 C 9.796875 -9.695312 9.578125 -10.34375 9.171875 -10.78125 C 8.765625 -11.226562 8.148438 -11.453125 7.328125 -11.453125 C 6.710938 -11.453125 6.160156 -11.265625 5.671875 -10.890625 C 5.191406 -10.523438 4.882812 -10.015625 4.75 -9.359375 L 1.46875 -9.359375 C 1.632812 -10.441406 2.007812 -11.328125 2.59375 -12.015625 C 3.1875 -12.703125 3.898438 -13.210938 4.734375 -13.546875 C 5.578125 -13.878906 6.453125 -14.046875 7.359375 -14.046875 C 8.160156 -14.046875 8.925781 -13.929688 9.65625 -13.703125 C 10.394531 -13.472656 11.015625 -13.125 11.515625 -12.65625 C 12.054688 -12.175781 12.441406 -11.628906 12.671875 -11.015625 C 12.898438 -10.398438 13.035156 -9.757812 13.078125 -9.09375 C 13.117188 -8.4375 13.140625 -7.789062 13.140625 -7.15625 L 13.140625 0 L 9.828125 0 L 9.828125 -1.859375 C 9.484375 -1.253906 9.066406 -0.796875 8.578125 -0.484375 C 8.148438 -0.210938 7.671875 -0.0195312 7.140625 0.09375 C 6.609375 0.207031 6.050781 0.265625 5.46875 0.265625 Z M 6.28125 -2.328125 C 6.925781 -2.328125 7.515625 -2.457031 8.046875 -2.71875 C 8.765625 -3.082031 9.25 -3.566406 9.5 -4.171875 C 9.75 -4.773438 9.882812 -5.523438 9.90625 -6.421875 L 6.625 -5.765625 C 6.144531 -5.679688 5.753906 -5.570312 5.453125 -5.4375 C 5.148438 -5.3125 4.898438 -5.160156 4.703125 -4.984375 C 4.578125 -4.847656 4.472656 -4.6875 4.390625 -4.5 C 4.304688 -4.320312 4.265625 -4.117188 4.265625 -3.890625 C 4.265625 -3.390625 4.457031 -3.003906 4.84375 -2.734375 C 5.226562 -2.460938 5.707031 -2.328125 6.28125 -2.328125 Z M 6.28125 -2.328125 "/></g></g></g><g fill="#ffffff" fill-opacity="1"><g transform="translate(76.545927, 25.095772)"><g><path d="M 8.53125 0 L 5.8125 0 C 4.800781 0 4.007812 -0.234375 3.4375 -0.703125 C 2.875 -1.179688 2.59375 -1.953125 2.59375 -3.015625 L 2.59375 -11.109375 L 0.5625 -11.109375 L 0.5625 -13.75 L 2.59375 -13.75 L 2.59375 -18.703125 L 5.90625 -18.703125 L 5.90625 -13.75 L 8.5625 -13.75 L 8.5625 -11.109375 L 5.90625 -11.109375 L 5.90625 -4.015625 C 5.90625 -3.660156 5.96875 -3.359375 6.09375 -3.109375 C 6.21875 -2.867188 6.53125 -2.75 7.03125 -2.75 L 8.53125 -2.75 Z M 8.53125 0 "/></g></g></g><g fill="#ffffff" fill-opacity="1"><g transform="translate(84.585824, 25.095772)"><g><path d="M 3.15625 -15.265625 C 2.601562 -15.265625 2.125 -15.4375 1.71875 -15.78125 C 1.320312 -16.125 1.125 -16.582031 1.125 -17.15625 C 1.125 -17.71875 1.320312 -18.171875 1.71875 -18.515625 C 2.125 -18.867188 2.601562 -19.046875 3.15625 -19.046875 C 3.71875 -19.046875 4.195312 -18.867188 4.59375 -18.515625 C 5 -18.171875 5.203125 -17.71875 5.203125 -17.15625 C 5.203125 -16.582031 5 -16.125 4.59375 -15.78125 C 4.195312 -15.4375 3.71875 -15.265625 3.15625 -15.265625 Z M 4.8125 0 L 1.5 0 L 1.5 -13.75 L 4.8125 -13.75 Z M 4.8125 0 "/></g></g></g></g></g><g clip-path="url(#1ceaa71f34)"><g clip-path="url(#bee3216d28)"><g transform="matrix(1, 0, 0, 1, 197, 167)"><g clip-path="url(#5aab8a1b6c)"><g clip-path="url(#4ac71509bb)"><g clip-path="url(#0afa47189c)"><path fill="#ffffff" d="M 0.816406 0.394531 L 15.882812 0.394531 L 15.882812 15.460938 L 0.816406 15.460938 Z M 0.816406 0.394531 " fill-opacity="1" fill-rule="nonzero"/></g></g></g></g></g></g><g clip-path="url(#a463ef8fcc)"><path fill="#282a32" d="M 211.578125 174.921875 C 206.960938 176.972656 207.394531 176.535156 205.34375 181.15625 C 203.292969 176.535156 203.730469 176.972656 199.109375 174.921875 C 203.730469 172.871094 203.292969 173.304688 205.34375 168.6875 C 207.394531 173.304688 206.960938 172.871094 211.578125 174.921875 Z M 211.578125 174.921875 " fill-opacity="1" fill-rule="nonzero"/></g><g transform="matrix(1, 0, 0, 1, 242, 157)"><g clip-path="url(#925dfbc088)"><g fill="#caef35" fill-opacity="1"><g transform="translate(0.681343, 24.97604)"><g><path d="M 11.28125 -19 C 11.6875 -19 12.039062 -18.878906 12.34375 -18.640625 C 12.65625 -18.398438 12.8125 -18.039062 12.8125 -17.5625 C 12.8125 -17.09375 12.546875 -16.351562 12.015625 -15.34375 C 11.492188 -14.332031 10.863281 -13.300781 10.125 -12.25 C 9.394531 -11.207031 8.566406 -10.09375 7.640625 -8.90625 C 6.171875 -7.03125 4.765625 -5.347656 3.421875 -3.859375 C 3.410156 -3.753906 3.375 -3.566406 3.3125 -3.296875 C 3.25 -3.023438 3.21875 -2.75 3.21875 -2.46875 C 3.21875 -2.1875 3.34375 -1.929688 3.59375 -1.703125 C 3.851562 -1.484375 4.171875 -1.375 4.546875 -1.375 C 4.929688 -1.375 5.34375 -1.507812 5.78125 -1.78125 C 6.21875 -2.050781 6.59375 -2.351562 6.90625 -2.6875 C 7.75 -3.550781 8.269531 -3.984375 8.46875 -3.984375 C 8.675781 -3.984375 8.78125 -3.675781 8.78125 -3.0625 L 8.78125 -2.8125 C 8.78125 -2.476562 8.722656 -2.238281 8.609375 -2.09375 C 7.898438 -1.21875 7.101562 -0.566406 6.21875 -0.140625 C 5.332031 0.285156 4.488281 0.5 3.6875 0.5 C 2.894531 0.5 2.289062 0.253906 1.875 -0.234375 C 1.46875 -0.722656 1.265625 -1.390625 1.265625 -2.234375 C 1.265625 -3.878906 1.703125 -5.8125 2.578125 -8.03125 C 3.460938 -10.25 4.457031 -12.140625 5.5625 -13.703125 C 8.050781 -17.234375 9.957031 -19 11.28125 -19 Z M 10.703125 -16.890625 C 10.703125 -17.023438 10.660156 -17.09375 10.578125 -17.09375 C 10.285156 -17.09375 9.507812 -16.25 8.25 -14.5625 C 6.988281 -12.875 6.078125 -11.523438 5.515625 -10.515625 C 4.960938 -9.515625 4.4375 -8.253906 3.9375 -6.734375 C 4.9375 -7.910156 6.3125 -9.75 8.0625 -12.25 C 9.820312 -14.757812 10.703125 -16.304688 10.703125 -16.890625 Z M 10.703125 -16.890625 "/></g></g></g></g></g><g transform="matrix(1, 0, 0, 1, 213, 157)"><g clip-path="url(#50766eec25)"><g fill="#ffffff" fill-opacity="1"><g transform="translate(1.027901, 25.095772)"><g><path d="M 4.8125 0 L 1.5 0 L 1.5 -13.75 L 4.8125 -13.75 L 4.8125 -12.015625 C 5.363281 -12.785156 5.941406 -13.316406 6.546875 -13.609375 C 7.148438 -13.898438 7.820312 -14.046875 8.5625 -14.046875 C 9.8125 -14.046875 10.757812 -13.820312 11.40625 -13.375 C 12.050781 -12.925781 12.53125 -12.382812 12.84375 -11.75 C 13.125 -11.132812 13.285156 -10.515625 13.328125 -9.890625 C 13.378906 -9.265625 13.40625 -8.609375 13.40625 -7.921875 L 13.40625 0 L 10.125 0 L 10.125 -7.96875 C 10.125 -8.664062 10.066406 -9.234375 9.953125 -9.671875 C 9.835938 -10.109375 9.664062 -10.457031 9.4375 -10.71875 C 9.039062 -11.125 8.460938 -11.328125 7.703125 -11.328125 C 6.765625 -11.328125 6.066406 -11.050781 5.609375 -10.5 C 5.335938 -10.164062 5.132812 -9.726562 5 -9.1875 C 4.875 -8.65625 4.8125 -7.929688 4.8125 -7.015625 Z M 4.8125 0 "/></g></g></g><g fill="#ffffff" fill-opacity="1"><g transform="translate(14.509778, 25.095772)"><g><path d="M 5.46875 0.265625 C 4.175781 0.265625 3.097656 -0.078125 2.234375 -0.765625 C 1.378906 -1.460938 0.953125 -2.46875 0.953125 -3.78125 C 0.953125 -4.507812 1.09375 -5.128906 1.375 -5.640625 C 1.664062 -6.160156 2.050781 -6.582031 2.53125 -6.90625 C 2.96875 -7.21875 3.46875 -7.460938 4.03125 -7.640625 C 4.59375 -7.828125 5.160156 -7.976562 5.734375 -8.09375 L 9.828125 -8.84375 C 9.796875 -9.695312 9.578125 -10.34375 9.171875 -10.78125 C 8.765625 -11.226562 8.148438 -11.453125 7.328125 -11.453125 C 6.710938 -11.453125 6.160156 -11.265625 5.671875 -10.890625 C 5.191406 -10.523438 4.882812 -10.015625 4.75 -9.359375 L 1.46875 -9.359375 C 1.632812 -10.441406 2.007812 -11.328125 2.59375 -12.015625 C 3.1875 -12.703125 3.898438 -13.210938 4.734375 -13.546875 C 5.578125 -13.878906 6.453125 -14.046875 7.359375 -14.046875 C 8.160156 -14.046875 8.925781 -13.929688 9.65625 -13.703125 C 10.394531 -13.472656 11.015625 -13.125 11.515625 -12.65625 C 12.054688 -12.175781 12.441406 -11.628906 12.671875 -11.015625 C 12.898438 -10.398438 13.035156 -9.757812 13.078125 -9.09375 C 13.117188 -8.4375 13.140625 -7.789062 13.140625 -7.15625 L 13.140625 0 L 9.828125 0 L 9.828125 -1.859375 C 9.484375 -1.253906 9.066406 -0.796875 8.578125 -0.484375 C 8.148438 -0.210938 7.671875 -0.0195312 7.140625 0.09375 C 6.609375 0.207031 6.050781 0.265625 5.46875 0.265625 Z M 6.28125 -2.328125 C 6.925781 -2.328125 7.515625 -2.457031 8.046875 -2.71875 C 8.765625 -3.082031 9.25 -3.566406 9.5 -4.171875 C 9.75 -4.773438 9.882812 -5.523438 9.90625 -6.421875 L 6.625 -5.765625 C 6.144531 -5.679688 5.753906 -5.570312 5.453125 -5.4375 C 5.148438 -5.3125 4.898438 -5.160156 4.703125 -4.984375 C 4.578125 -4.847656 4.472656 -4.6875 4.390625 -4.5 C 4.304688 -4.320312 4.265625 -4.117188 4.265625 -3.890625 C 4.265625 -3.390625 4.457031 -3.003906 4.84375 -2.734375 C 5.226562 -2.460938 5.707031 -2.328125 6.28125 -2.328125 Z M 6.28125 -2.328125 "/></g></g></g></g></g><g fill="#ffffff" fill-opacity="1"><g transform="translate(258.376247, 181.47696)"><g><path d="M 4.875 0 L 1.5625 0 L 1.5625 -17.578125 L 4.875 -17.578125 Z M 4.875 0 "/></g></g></g><g fill="#ffffff" fill-opacity="1"><g transform="translate(263.557056, 181.47696)"><g><path d="M 4.515625 0 L 1.40625 0 L 1.40625 -12.921875 L 4.515625 -12.921875 L 4.515625 -11.28125 C 5.035156 -12.007812 5.578125 -12.507812 6.140625 -12.78125 C 6.710938 -13.0625 7.34375 -13.203125 8.03125 -13.203125 C 9.21875 -13.203125 10.113281 -12.988281 10.71875 -12.5625 C 11.320312 -12.144531 11.769531 -11.632812 12.0625 -11.03125 C 12.320312 -10.46875 12.472656 -9.890625 12.515625 -9.296875 C 12.566406 -8.703125 12.59375 -8.082031 12.59375 -7.4375 L 12.59375 0 L 9.515625 0 L 9.515625 -7.484375 C 9.515625 -8.140625 9.457031 -8.671875 9.34375 -9.078125 C 9.238281 -9.492188 9.078125 -9.820312 8.859375 -10.0625 C 8.492188 -10.445312 7.953125 -10.640625 7.234375 -10.640625 C 6.359375 -10.640625 5.707031 -10.378906 5.28125 -9.859375 C 5.007812 -9.546875 4.8125 -9.132812 4.6875 -8.625 C 4.570312 -8.125 4.515625 -7.445312 4.515625 -6.59375 Z M 4.515625 0 "/></g></g></g><g fill="#ffffff" fill-opacity="1"><g transform="translate(276.221739, 181.47696)"><g><path d="M 7 0.25 C 6.019531 0.25 5.082031 0.09375 4.1875 -0.21875 C 3.300781 -0.53125 2.550781 -1.023438 1.9375 -1.703125 C 1.332031 -2.390625 0.957031 -3.273438 0.8125 -4.359375 L 3.875 -4.359375 C 4.070312 -3.648438 4.4375 -3.109375 4.96875 -2.734375 C 5.507812 -2.367188 6.179688 -2.1875 6.984375 -2.1875 C 7.640625 -2.1875 8.179688 -2.316406 8.609375 -2.578125 C 9.046875 -2.835938 9.265625 -3.207031 9.265625 -3.6875 C 9.265625 -4.070312 9.117188 -4.375 8.828125 -4.59375 C 8.546875 -4.8125 8.175781 -4.984375 7.71875 -5.109375 C 7.257812 -5.234375 6.753906 -5.347656 6.203125 -5.453125 C 5.640625 -5.566406 5.070312 -5.695312 4.5 -5.84375 C 3.925781 -6 3.398438 -6.210938 2.921875 -6.484375 C 2.453125 -6.753906 2.066406 -7.113281 1.765625 -7.5625 C 1.472656 -8.019531 1.328125 -8.609375 1.328125 -9.328125 C 1.328125 -10.234375 1.554688 -10.96875 2.015625 -11.53125 C 2.484375 -12.101562 3.097656 -12.523438 3.859375 -12.796875 C 4.617188 -13.066406 5.441406 -13.203125 6.328125 -13.203125 C 7.835938 -13.203125 9.097656 -12.820312 10.109375 -12.0625 C 11.117188 -11.300781 11.738281 -10.210938 11.96875 -8.796875 L 9.046875 -8.796875 C 8.867188 -9.503906 8.523438 -10.003906 8.015625 -10.296875 C 7.503906 -10.597656 6.9375 -10.75 6.3125 -10.75 C 5.695312 -10.75 5.207031 -10.628906 4.84375 -10.390625 C 4.488281 -10.160156 4.3125 -9.84375 4.3125 -9.4375 C 4.3125 -9.082031 4.445312 -8.804688 4.71875 -8.609375 C 5 -8.410156 5.363281 -8.253906 5.8125 -8.140625 C 6.269531 -8.035156 6.757812 -7.929688 7.28125 -7.828125 C 7.84375 -7.722656 8.421875 -7.597656 9.015625 -7.453125 C 9.609375 -7.304688 10.15625 -7.097656 10.65625 -6.828125 C 11.15625 -6.554688 11.554688 -6.1875 11.859375 -5.71875 C 12.171875 -5.25 12.328125 -4.648438 12.328125 -3.921875 C 12.328125 -2.660156 11.859375 -1.648438 10.921875 -0.890625 C 9.984375 -0.128906 8.675781 0.25 7 0.25 Z M 7 0.25 "/></g></g></g><g fill="#ffffff" fill-opacity="1"><g transform="translate(288.218626, 181.47696)"><g><path d="M 8.015625 0 L 5.453125 0 C 4.503906 0 3.765625 -0.21875 3.234375 -0.65625 C 2.703125 -1.101562 2.4375 -1.828125 2.4375 -2.828125 L 2.4375 -10.4375 L 0.53125 -10.4375 L 0.53125 -12.921875 L 2.4375 -12.921875 L 2.4375 -17.578125 L 5.546875 -17.578125 L 5.546875 -12.921875 L 8.03125 -12.921875 L 8.03125 -10.4375 L 5.546875 -10.4375 L 5.546875 -3.78125 C 5.546875 -3.4375 5.601562 -3.148438 5.71875 -2.921875 C 5.832031 -2.691406 6.128906 -2.578125 6.609375 -2.578125 L 8.015625 -2.578125 Z M 8.015625 0 "/></g></g></g><g fill="#ffffff" fill-opacity="1"><g transform="translate(295.771245, 181.47696)"><g><path d="M 2.96875 -14.34375 C 2.445312 -14.34375 2 -14.503906 1.625 -14.828125 C 1.25 -15.148438 1.0625 -15.582031 1.0625 -16.125 C 1.0625 -16.644531 1.25 -17.066406 1.625 -17.390625 C 2 -17.722656 2.445312 -17.890625 2.96875 -17.890625 C 3.488281 -17.890625 3.9375 -17.722656 4.3125 -17.390625 C 4.6875 -17.066406 4.875 -16.644531 4.875 -16.125 C 4.875 -15.582031 4.6875 -15.148438 4.3125 -14.828125 C 3.9375 -14.503906 3.488281 -14.34375 2.96875 -14.34375 Z M 4.515625 0 L 1.40625 0 L 1.40625 -12.921875 L 4.515625 -12.921875 Z M 4.515625 0 "/></g></g></g><g fill="#ffffff" fill-opacity="1"><g transform="translate(300.445447, 181.47696)"><g><path d="M 8.015625 0 L 5.453125 0 C 4.503906 0 3.765625 -0.21875 3.234375 -0.65625 C 2.703125 -1.101562 2.4375 -1.828125 2.4375 -2.828125 L 2.4375 -10.4375 L 0.53125 -10.4375 L 0.53125 -12.921875 L 2.4375 -12.921875 L 2.4375 -17.578125 L 5.546875 -17.578125 L 5.546875 -12.921875 L 8.03125 -12.921875 L 8.03125 -10.4375 L 5.546875 -10.4375 L 5.546875 -3.78125 C 5.546875 -3.4375 5.601562 -3.148438 5.71875 -2.921875 C 5.832031 -2.691406 6.128906 -2.578125 6.609375 -2.578125 L 8.015625 -2.578125 Z M 8.015625 0 "/></g></g></g><g fill="#ffffff" fill-opacity="1"><g transform="translate(307.998066, 181.47696)"><g><path d="M 5.921875 0.25 C 3.921875 0.25 2.578125 -0.460938 1.890625 -1.890625 C 1.691406 -2.316406 1.546875 -2.785156 1.453125 -3.296875 C 1.367188 -3.816406 1.328125 -4.546875 1.328125 -5.484375 L 1.328125 -12.921875 L 4.4375 -12.921875 L 4.4375 -5.453125 C 4.4375 -4.796875 4.488281 -4.265625 4.59375 -3.859375 C 4.695312 -3.453125 4.851562 -3.125 5.0625 -2.875 C 5.4375 -2.488281 5.984375 -2.296875 6.703125 -2.296875 C 7.585938 -2.296875 8.25 -2.5625 8.6875 -3.09375 C 8.945312 -3.394531 9.132812 -3.800781 9.25 -4.3125 C 9.363281 -4.832031 9.421875 -5.515625 9.421875 -6.359375 L 9.421875 -12.921875 L 12.53125 -12.921875 L 12.53125 0 L 9.421875 0 L 9.421875 -1.640625 C 8.941406 -0.972656 8.429688 -0.488281 7.890625 -0.1875 C 7.347656 0.101562 6.691406 0.25 5.921875 0.25 Z M 5.921875 0.25 "/></g></g></g><g fill="#ffffff" fill-opacity="1"><g transform="translate(320.685775, 181.47696)"><g><path d="M 8.015625 0 L 5.453125 0 C 4.503906 0 3.765625 -0.21875 3.234375 -0.65625 C 2.703125 -1.101562 2.4375 -1.828125 2.4375 -2.828125 L 2.4375 -10.4375 L 0.53125 -10.4375 L 0.53125 -12.921875 L 2.4375 -12.921875 L 2.4375 -17.578125 L 5.546875 -17.578125 L 5.546875 -12.921875 L 8.03125 -12.921875 L 8.03125 -10.4375 L 5.546875 -10.4375 L 5.546875 -3.78125 C 5.546875 -3.4375 5.601562 -3.148438 5.71875 -2.921875 C 5.832031 -2.691406 6.128906 -2.578125 6.609375 -2.578125 L 8.015625 -2.578125 Z M 8.015625 0 "/></g></g></g><g fill="#ffffff" fill-opacity="1"><g transform="translate(328.238394, 181.47696)"><g><path d="M 7.46875 0.25 C 6.144531 0.25 4.988281 -0.0351562 4 -0.609375 C 3.007812 -1.179688 2.238281 -1.96875 1.6875 -2.96875 C 1.144531 -3.96875 0.875 -5.101562 0.875 -6.375 C 0.875 -7.21875 1.003906 -8.046875 1.265625 -8.859375 C 1.523438 -9.679688 1.921875 -10.414062 2.453125 -11.0625 C 2.992188 -11.71875 3.671875 -12.238281 4.484375 -12.625 C 5.304688 -13.007812 6.269531 -13.203125 7.375 -13.203125 C 8.195312 -13.203125 8.992188 -13.066406 9.765625 -12.796875 C 10.546875 -12.535156 11.242188 -12.132812 11.859375 -11.59375 C 12.472656 -11.050781 12.957031 -10.359375 13.3125 -9.515625 C 13.675781 -8.671875 13.859375 -7.664062 13.859375 -6.5 L 13.859375 -5.828125 L 4.09375 -5.828125 C 4.125 -5.546875 4.1875 -5.269531 4.28125 -5 C 4.375 -4.738281 4.472656 -4.507812 4.578125 -4.3125 C 4.890625 -3.707031 5.300781 -3.238281 5.8125 -2.90625 C 6.332031 -2.582031 6.921875 -2.421875 7.578125 -2.421875 C 8.316406 -2.421875 8.9375 -2.609375 9.4375 -2.984375 C 9.9375 -3.367188 10.285156 -3.828125 10.484375 -4.359375 L 13.65625 -4.359375 C 13.40625 -3.523438 13.007812 -2.757812 12.46875 -2.0625 C 11.9375 -1.363281 11.253906 -0.800781 10.421875 -0.375 C 9.597656 0.0390625 8.613281 0.25 7.46875 0.25 Z M 4.234375 -8.15625 L 10.6875 -8.15625 C 10.664062 -8.320312 10.617188 -8.507812 10.546875 -8.71875 C 10.484375 -8.9375 10.367188 -9.144531 10.203125 -9.34375 C 9.910156 -9.8125 9.519531 -10.160156 9.03125 -10.390625 C 8.550781 -10.617188 8.03125 -10.734375 7.46875 -10.734375 C 6.894531 -10.734375 6.375 -10.617188 5.90625 -10.390625 C 5.4375 -10.160156 5.050781 -9.8125 4.75 -9.34375 C 4.570312 -9.144531 4.445312 -8.9375 4.375 -8.71875 C 4.3125 -8.507812 4.265625 -8.320312 4.234375 -8.15625 Z M 4.234375 -8.15625 "/></g></g></g><g fill="#ffffff" fill-opacity="1"><g transform="translate(341.709028, 181.47696)"><g/></g></g><g fill="#ffffff" fill-opacity="1"><g transform="translate(346.613508, 181.47696)"><g><path d="M 7.484375 0.25 C 6.191406 0.25 5.046875 -0.03125 4.046875 -0.59375 C 3.054688 -1.164062 2.28125 -1.960938 1.71875 -2.984375 C 1.15625 -4.003906 0.875 -5.191406 0.875 -6.546875 C 0.875 -7.847656 1.15625 -9 1.71875 -10 C 2.28125 -11 3.054688 -11.78125 4.046875 -12.34375 C 5.035156 -12.914062 6.179688 -13.203125 7.484375 -13.203125 C 8.785156 -13.203125 9.9375 -12.914062 10.9375 -12.34375 C 11.9375 -11.78125 12.71875 -11 13.28125 -10 C 13.84375 -9 14.125 -7.847656 14.125 -6.546875 C 14.125 -5.203125 13.84375 -4.019531 13.28125 -3 C 12.726562 -1.976562 11.953125 -1.179688 10.953125 -0.609375 C 9.960938 -0.0351562 8.804688 0.25 7.484375 0.25 Z M 7.484375 -2.421875 C 8.492188 -2.421875 9.3125 -2.800781 9.9375 -3.5625 C 10.570312 -4.332031 10.890625 -5.328125 10.890625 -6.546875 C 10.890625 -7.304688 10.75 -7.984375 10.46875 -8.578125 C 10.1875 -9.179688 9.789062 -9.65625 9.28125 -10 C 8.769531 -10.351562 8.171875 -10.53125 7.484375 -10.53125 C 6.828125 -10.53125 6.234375 -10.359375 5.703125 -10.015625 C 5.179688 -9.679688 4.773438 -9.210938 4.484375 -8.609375 C 4.191406 -8.015625 4.046875 -7.328125 4.046875 -6.546875 C 4.046875 -5.316406 4.367188 -4.320312 5.015625 -3.5625 C 5.660156 -2.800781 6.484375 -2.421875 7.484375 -2.421875 Z M 7.484375 -2.421875 "/></g></g></g><g fill="#ffffff" fill-opacity="1"><g transform="translate(360.360471, 181.47696)"><g><path d="M 5.625 0 L 2.484375 0 L 2.484375 -10.4375 L 0.53125 -10.4375 L 0.53125 -12.921875 L 2.484375 -12.921875 L 2.484375 -14.234375 C 2.484375 -15.304688 2.785156 -16.128906 3.390625 -16.703125 C 4.003906 -17.285156 4.894531 -17.578125 6.0625 -17.578125 L 7.984375 -17.578125 L 7.984375 -15.109375 L 6.796875 -15.109375 C 6.453125 -15.109375 6.171875 -15.007812 5.953125 -14.8125 C 5.734375 -14.625 5.625 -14.285156 5.625 -13.796875 L 5.625 -12.921875 L 7.984375 -12.921875 L 7.984375 -10.4375 L 5.625 -10.4375 Z M 5.625 0 "/></g></g></g></svg>